<svg height="512" viewBox="0 0 58 52" width="512" xmlns="http://www.w3.org/2000/svg"><g id="001---Happy-Brain" fill="none"><path id="Shape" d="m28 37v1.5c-.0026629 1.1942885.4705878 2.340429 1.3150794 3.1849206s1.9906321 1.3177423 3.1849206 1.3150794c1.1934742 0 2.3380668.4741058 3.1819805 1.3180195s1.3180195 1.9885063 1.3180195 3.1819805v2.5c0 1.1045695.8954305 2 2 2h3c1.1045695 0 2-.8954305 2-2v-23z" fill="#802d40"/><path id="Shape" d="m53 33c-.0031273 2.4080139-1.7222011 4.4717431-4.09 4.91-.4853669 2.5250917-2.806779 4.2703677-5.3673229 4.0352421-2.560544-.2351256-4.5252898-2.3739842-4.5426771-4.9452421-.0099584-.0997521-.0099584-.2002479 0-.3 1.21-.37 2.28-3.05 3.12-4 2.6648991.7363004 5.5135177-.1649132 7.27-2.3.813684.3940861 1.7059066.5991947 2.61.6.34 0 .67 2 1 1.91.004853.0298037.004853.0601963 0 .09z" fill="#ff5364"/><path id="Shape" d="m49.43 32.42s-.42.47-.43.48c-1.7826128 1.8140021-4.4088659 2.5184198-6.86 1.84-2.5330562 2.7459668-6.7760527 3.0188567-9.64.62-1.5408465 1.293024-3.5634699 1.8607104-5.5521044 1.5583002-1.9886344-.3024103-3.7510727-1.4456884-4.8378956-3.1383002-1.6419663 1.7551594-4.0695791 2.5452022-6.4300417 2.0925941s-4.3236668-2.0845702-5.1999583-4.3225941c-2.39378317.9035827-5.08984594.4291226-7.03133652-1.237393-1.94149058-1.6665155-2.81904499-4.2595379-2.28866348-6.762607.69 3.14 3.49 2.95 6.84 2.95.8501733-.0146588 1.69056239-.1840921 2.48-.5.8762915 2.2380239 2.8394957 3.869986 5.1999583 4.3225941s4.7880754-.3374347 6.4300417-2.0925941c1.085169 1.6941455 2.8468147 2.8394695 4.8355574 3.1438103s4.0122861-.2617291 5.5544426-1.5538103c2.8639473 2.3988567 7.1069438 2.1259668 9.64-.62 2.6648991.7363004 5.5135177-.1649132 7.27-2.3 1.1087367.5232067 2.3511411.6942118 3.56.49 2.34-.39 4.23.4 4.81-1.87.5627469 2.2437854-.2145289 4.6112279-1.9977501 6.0847879s-4.2547266 1.7907391-6.3522499.8152121z" fill="#df4d60"/><path id="Shape" d="m54.88 9.74c-.13-.08-.09 0-.05-.25.0272649.08085872.0440681.16487469.05.25z" fill="#df4d60"/><path id="Shape" d="m56 22.53c.8880483.7962228 1.5153555 1.8417349 1.8 3-.4484474 1.7300229-1.6447789 3.170077-3.2632706 3.9280803-1.6184918.7580033-3.4906445.755041-5.1067294-.0080803-1.7564823 2.1350868-4.6051009 3.0363004-7.27 2.3-2.5330562 2.7459668-6.7760527 3.0188567-9.64.62-1.5408465 1.293024-3.5634699 1.8607104-5.5521044 1.5583002-1.9886344-.3024103-3.7510727-1.4456884-4.8378956-3.1383002-1.6419663 1.7551594-4.0695791 2.5452022-6.4300417 2.0925941s-4.3236668-2.0845702-5.1999583-4.3225941c-1.89635101.7223744-4.0128565.5862586-5.80105421-.3730749-1.78819772-.9593336-3.07207955-2.6474599-3.51894579-4.6269251 0-.16.08-.32.13-.47-1.42496302-2.0024654-1.69536864-4.6055486-.71241718-6.8581457s3.07524887-3.8246826 5.51241718-4.1418543c-.0619416-.3603371-.0986973-.7245526-.11-1.09.00155936-2.37398896 1.2062299-4.58539893 3.19995655-5.87415029 1.99372665-1.28875137 4.50476225-1.47918591 6.67004345-.50584971.9494368-1.72217957 2.5795061-2.96555472 4.4914119-3.42593402 1.9119058-.46037929 3.9292856-.09529539 5.5585881 1.00593402 2.4871432-2.62697809 6.5662666-2.92608491 9.41-.69 3.456208-2.48969321 8.2571371-1.83462139 10.92 1.49.0522048.05905952.0990559.12264312.14.19.2045085.26905645.3883666.55320079.55.85 3.6336407-.53828732 7.0652918 1.82370156 7.86 5.41 0 .28-.08.17.05.25.192807.9943036.1620648 2.0190425-.09 3 1.7515055.9072907 2.9451738 2.6175182 3.1927873 4.5744636.2476135 1.9569455-.4824634 3.9105856-1.9527873 5.2255364z" fill="#ff5364"/><g fill="#fff"><path id="Shape" d="m23 17c-.5522847 0-1-.4477153-1-1v-1c0-.5522847.4477153-1 1-1s1 .4477153 1 1v1c0 .5522847-.4477153 1-1 1z"/><path id="Shape" d="m37 17c-.5522847 0-1-.4477153-1-1v-1c0-.5522847.4477153-1 1-1s1 .4477153 1 1v1c0 .5522847-.4477153 1-1 1z"/><path id="Shape" d="m30 25c-2.7614237 0-5-2.2385763-5-5 0-.5522847.4477153-1 1-1s1 .4477153 1 1c0 1.6568542 1.3431458 3 3 3s3-1.3431458 3-3c0-.5522847.4477153-1 1-1s1 .4477153 1 1c0 2.7614237-2.2385763 5-5 5z"/></g></g></svg>