<svg height="512" viewBox="0 0 42 58" width="512" xmlns="http://www.w3.org/2000/svg"><g id="002---Mindfulness-App" fill="none"><path id="Shape" d="m42 5v5h-42v-5c0-2.76142375 2.23857625-5 5-5h32c1.3260824 0 2.597852.5267842 3.5355339 1.46446609.9376819.9376819 1.4644661 2.20945146 1.4644661 3.53553391z" fill="#3f5c6c"/><path id="Shape" d="m42 47v6c0 2.7614237-2.2385763 5-5 5h-32c-2.76142375 0-5-2.2385763-5-5v-6z" fill="#3f5c6c"/><path id="Rectangle-path" d="m0 7h42v43h-42z" fill="#90bae1"/><path id="Shape" d="m42 7s-42 0-42 43v-43z" fill="#b0d3f0"/><path id="Shape" d="m22 55h-2c-.5522847 0-1-.4477153-1-1s.4477153-1 1-1h2c.5522847 0 1 .4477153 1 1s-.4477153 1-1 1z" fill="#95a5a5"/><path id="Shape" d="m30 30v10.83c0 .6461732-.5238268 1.17-1.17 1.17h-1.66c-.6461732 0-1.17-.5238268-1.17-1.17v-.83c-.0054376-1.4518789-1.1781522-2.6290525-2.63-2.64-.6722048-.0083462-1.310372-.2970803-1.7604026-.7964813s-.671017-1.1640738-.6095974-1.8335187v-2.73z" fill="#802d40"/><g fill="#3b97d3"><path id="Shape" d="m28 47h-22c-.55228475 0-1-.4477153-1-1s.44771525-1 1-1h22c.5522847 0 1 .4477153 1 1s-.4477153 1-1 1z"/><path id="Shape" d="m20 42h-14c-.55228475 0-1-.4477153-1-1s.44771525-1 1-1h14c.5522847 0 1 .4477153 1 1s-.4477153 1-1 1z"/><path id="Shape" d="m36 47h-4c-.5522847 0-1-.4477153-1-1s.4477153-1 1-1h4c.5522847 0 1 .4477153 1 1s-.4477153 1-1 1z"/></g><path id="Shape" d="m35.88 31.05c.3889591 1.4114382-.0242597 2.9226055-1.077296 3.9397394-1.0530363 1.017134-2.5776231 1.3777047-3.9747254.9400379-1.3971022-.4376667-2.443474-1.6036352-2.7279786-3.0397773l1.9-5.89z" fill="#ff5364"/><path id="Shape" d="m37.85 26.82c.3841097 1.3229827-.0388557 2.7484468-1.0823852 3.6478186s-2.5158066 1.1073332-3.7676148.5321814c-1.0309894 1.2615988-2.7098797 1.7950779-4.28 1.36-1.4821448 1.6127513-3.9701877 1.7756851-5.65.37-.902467.7536542-2.0856277 1.0824688-3.2475505.9025335-1.1619228-.1799354-2.190209-.8512146-2.8224495-1.8425335-.9605443 1.0322448-2.3841211 1.4984848-3.7692089 1.2344651s-2.5373284-1.2212512-3.0507911-2.5344651c-1.42628791.5357814-3.0320513.2364736-4.16953006-.7771837-1.13747875-1.0136572-1.61905793-2.574472-1.25046994-4.0528163 0-.27.06-.07-.07-.33-.75559737-1.1781881-.8545184-2.6614583-.26206624-3.9295493.59245215-1.2680911 1.79357309-2.1439817 3.18206624-2.3204507-.23792759-1.4872348.36078475-2.9848882 1.55838939-3.8982446 1.19760461-.9133564 2.80028161-1.0945985 4.17161061-.4717554.5599718-1.0054902 1.5149914-1.7309221 2.6338389-2.0006612 1.1188475-.2697392 2.2995187-.0591937 3.2561611.5806612 1.4545077-1.5516711 3.8569825-1.7257634 5.52-.4 1.080897-.7808578 2.4435593-1.0635571 3.7458776-.7771234 1.3023183.2864336 2.4206118 1.1147977 3.0741224 2.2771234 1.355907-.2049717 2.7245136.2815017 3.646858 1.2962815s1.2762903 2.4234894.943142 3.7537185c1.0249465.5378271 1.7188463 1.5463847 1.8547843 2.6958603.1359379 1.1494756-.3035646 2.2920704-1.1747843 3.0541397.4822556.4383722.83213 1.0030208 1.01 1.63z" fill="#df4d60"/><path id="Shape" d="m36.8 25.19c.4969322.4332519.8609832.9983977 1.05 1.63-.2910097.9789515-.9939675 1.7826086-1.9254831 2.2013105-.9315157.4187019-1.9992019.4109218-2.9245169-.0213105-1.0279341 1.2660892-2.7097826 1.8005083-4.28 1.36-1.4821448 1.6127513-3.9701877 1.7756851-5.65.37-.902467.7536542-2.0856277 1.0824688-3.2475505.9025335-1.1619228-.1799354-2.190209-.8512146-2.8224495-1.8425335-.9605443 1.0322448-2.3841211 1.4984848-3.7692089 1.2344651s-2.5373284-1.2212512-3.0507911-2.5344651c-1.092242.4149326-2.30979705.3429212-3.34551355-.197868-1.0357165-.5407893-1.79069819-1.4987186-2.07448645-2.632132-.00454726-.0532364-.00454726-.1067636 0-.16-.8353792-1.1691532-.99414948-2.6915476-.41798438-4.0079106.57616511-1.316363 1.80230656-2.2325888 3.22798438-2.4120894-.23792759-1.4872348.36078475-2.9848882 1.55838939-3.8982446 1.19760461-.9133564 2.80028161-1.0945985 4.17161061-.4717554.5599718-1.0054902 1.5149914-1.7309221 2.6338389-2.0006612 1.1188475-.2697392 2.2995187-.0591937 3.2561611.5806612 1.4545077-1.5516711 3.8569825-1.7257634 5.52-.4 1.080897-.7808578 2.4435593-1.0635571 3.7458776-.7771234 1.3023183.2864336 2.4206118 1.1147977 3.0741224 2.2771234 1.355907-.2049717 2.7245136.2815017 3.646858 1.2962815s1.2762903 2.4234894.943142 3.7537185c1.0249465.5378271 1.7188463 1.5463847 1.8547843 2.6958603.1359379 1.1494756-.3035646 2.2920704-1.1747843 3.0541397z" fill="#ff5364"/></g></svg>