<svg height="512" viewBox="0 0 58 58" width="512" xmlns="http://www.w3.org/2000/svg"><g id="003---Hot-Stones" fill="none"><path id="Shape" d="m58 47c0 6.08-13 11-29 11s-29-4.92-29-11c0-3 3.08-5.66 8.11-7.63 11 4.05 28.34 3.33 37.1-1.49 7.72 1.97 12.79 5.32 12.79 9.12z" fill="#a59078"/><path id="Shape" d="m9.52 51.94c-.24862078-.0959895-.44864007-.2872502-.55565826-.5313268-.10701819-.2440765-.11218076-.5207744-.01434174-.7686732.20000672-.5124931.77641458-.767185 1.29-.57 2.87 1.09 9.14 2.93 18.76 2.93 13.26 0 21.58-3.49 23.71-5.7.2500859-.2572312.6184061-.3615034.9662178-.2735383.3478117.0879652.6222742.3548036.72.7s.0038681.7163071-.2462178.9735383c-5.64 5.81-29.35 9.05-44.63 3.24z" fill="#cbb292"/><path id="Shape" d="m5.82 50c-.19944269.0004453-.39446265-.0587572-.56-.17-.50944556-.3246183-.98220631-.7034975-1.41-1.13-.38659932-.397645-.37764502-1.0334007.02-1.42s1.03340068-.377645 1.42.02c.32655557.3292282.68879215.6210299 1.08.87.36402581.2445986.52619566.6978475.39996308 1.1178578-.12623259.4200102-.51140657.7087569-.94996308.7121422z" fill="#cbb292"/><path id="Shape" d="m45.21 37.88c-8.81 4.84-26.13 5.52-37.1 1.49-4.99-1.83-8.11-4.45-8.11-7.37 0-4 5.85-7.44 14.31-9 7 3.54 19.09 3.89 27.27 1.56 9.07 3.17 11.63 8.93 3.63 13.32z" fill="#a56a43"/><path id="Shape" d="m9.14 36.55c-.47180108-.2196626-.69625061-.7644763-.51609302-1.2527295s.70468902-.7567049 1.20609302-.6172705c11.92 4.37 29.33 2.16 34.53-2.21.2691845-.2603225.6612537-.3484353 1.0159371-.2283194.3546833.1201158.6125344.4283284.6681484.7986461s-.1003302.7406737-.4040855.9596733c-5.85 4.92-24.03 7.13-36.5 2.55z" fill="#cb8252"/><path id="Shape" d="m6 35c-.18872268.0010806-.37340085-.0546713-.53-.16-.50296055-.3118035-.97805845-.6664541-1.42-1.06-.20858133-.1820616-.33234849-.44245-.34182451-.7191498-.00947603-.2766999.09618723-.5449455.29182451-.7408502.39003745-.3877236 1.01996255-.3877236 1.41 0 .35153844.3123084.72963674.5933726 1.13.84.37201306.2402935.54166334.6966564.41695017 1.1216049-.12471316.4249486-.51408072.7172519-.95695017.7183951z" fill="#cb8252"/><path id="Shape" d="m50 18c0 7.62-24.08 10.83-35.69 5-2.7-1.4-4.31-3.13-4.31-5 0-2.67 3.27-5 8.3-6.49 5.79 3.46 16.62 3.29 22-.37 5.81 1.4 9.7 3.95 9.7 6.86z" fill="#7f6e5d"/><path id="Shape" d="m18.71 21.48c-.3621282-.0857553-.6466822-.3655069-.7385884-.7261231-.0919061-.3606162.02404-.7424386.3009497-.9910584.2769098-.2486197.6689728-.3229064 1.0176387-.1928185 6.8435285 1.8576442 14.0522222 1.9058859 20.92.14 3.68-1 4.8-2.24 4.92-2.37.2306318-.2863409.5997925-.4230275.9612895-.3559299.3614969.0670975.6570177.3271558.7695321.6771882.1125143.3500324.0238727.7335758-.2308216.9987417-.35.41-1.84 1.83-5.87 3-7.2393936 1.8683025-14.8420721 1.8062398-22.05-.18z" fill="#cbb292"/><path id="Shape" d="m15.4 20c-.1794833-.0000528-.3556443-.0484107-.51-.14-.5701853-.3207708-1.0864719-.7290759-1.53-1.21-.3589851-.4197364-.3097364-1.0510149.11-1.41s1.0510149-.3097364 1.41.11c.2929389.3107839.6298539.5769468 1 .79.3829514.2267866.5699326.6793674.4587203 1.1103149-.1112122.4309475-.4938485.7365303-.9387203.7496851z" fill="#cbb292"/><path id="Shape" d="m40.29 11.14c-5.36 3.66-16.18 3.84-22 .37-.08 0-3.29-1.79-3.29-4.51 0-3.87 6.27-7 14-7 11.27 0 18.14 6.46 11.29 11.14z" fill="#cb8252"/><path id="Shape" d="m29 11c-7.83 0-12.62-3.6-10.47-4.86.4749776-.28157648 1.088281-.12489313 1.37.35.34.51 3.48 2.51 9.1 2.51s8.76-2 9.1-2.51c.1386255-.22745408.3622684-.39020197.6213332-.45215224.2590647-.06195026.5321396-.01798273.7586668.12215224.4629813.28098224.618144.87946675.35 1.35-.83 1.41-4.83 3.49-10.83 3.49z" fill="#cf976a"/></g></svg>