<svg height="512" viewBox="0 0 58 58" width="512" xmlns="http://www.w3.org/2000/svg"><g id="004---Give-Relaxation" fill="none"><path id="Shape" d="m56.68 44.57-18.74 11.43c-1.0988668.6603717-2.3579861 1.0062836-3.64 1-29.17 0-26.94 0-27.3.0000841.34-.6400841.24.9999159.24-22.0000841h4.52c2.0496565.0061271 4.0358248.7116931 5.63 2 1.586439 1.288279 3.5663716 1.9941374 5.61 2h5.16c3.84 0 6.36 4.39 3.84 7h2.66c.92 0-.34.3 19.78-6.38 1.1289069-.3576453 2.3601528.0447226 3.06 1 .4502075.6217707.6178334 1.404357.4618 2.1559813s-.621306 1.402824-1.2818 1.7940187z" fill="#f9c795"/><path id="Shape" d="m57.81 41.25c-.2253398.5498101-.6215053 1.0125876-1.13 1.32l-18.74 11.43c-1.0988668.6603717-2.3579861 1.0062836-3.64 1-29.17 0-26.94 0-27.3.0000841.34-.6400841.24.7399159.24-20.0000841h4.52c2.0496565.0061271 4.0358248.7116931 5.63 2 1.586439 1.288279 3.5663716 1.9941374 5.61 2h5.16c3.84 0 6.35 4.4 3.84 7 2.74 0 3.12.07 3.93-.21l18.51-6.17c1.1289069-.3576453 2.3601528.0447226 3.06 1 .1340402.1934434.2385198.4057731.31.63z" fill="#fdd7ad"/><path id="Shape" d="m33 43.9999997c-.1125911.7559125-.4628249 1.4563801-1 2.0000003h-6.28c-1.5798458-.0015392-3.1247785.4647243-4.44 1.34l-.72.49c-.4583963.3092795-1.0807205.1883963-1.39-.27s-.1883963-1.0807205.27-1.39l.73-.49c1.6434687-1.0958612 3.574677-1.6804431 5.55-1.68z" fill="#f9c795"/><path id="Shape" d="m9 35c0 22.91.1 21.31-.24 22-.36221292.6275333-1.03550396 1.010085-1.76 1h-5c-1.1045695 0-2-.8954305-2-2v-21c0-1.1045695.8954305-2 2-2h5c1.1045695 0 2 .8954305 2 2z" fill="#955ba5"/><path id="Shape" d="m42.68 7.38c-2.3878732 1.76201439-4.3325716 4.0559368-5.68 6.7-1.3531041-2.6547263-3.3085495-4.9560561-5.71-6.72 1.3217408-2.56141197 3.0057154-4.91897647 5-7 .3888435-.38114288 1.0111565-.38114288 1.4 0 1.994605 2.08592683 3.6755018 4.45063544 4.99 7.02z" fill="#7ed09e"/><path id="Shape" d="m51 10.7c-3.2468693.6217116-6.2661151 2.1071529-8.74 4.3-4.85 4.62-5.26 12-5.26 14.29-.0018742-3.5616965-.8014439-7.077753-2.34-10.29 1.1036641-2.8389471 2.5618979-5.5269356 4.34-8 2.16-3.06 5.81-5.29 9.27-6.65.2491739-.0973189.5269514-.09074777.7712447.01824464s.434734.3113186.5287553.56175536c.7059182 1.85915698 1.1860219 3.79635873 1.43 5.77z" fill="#4fba6f"/><path id="Shape" d="m58 11c0 2.58-.6 9.55-5.26 14-4 3.8-10.11 5-15.74 5 0-5.5 1.32-11.25 5.26-15 3.74-3.56 9.62-4.92 14.74-5 .5522847 0 1 .4477153 1 1z" fill="#24ae5f"/><path id="Shape" d="m44.69 23.93c4.11-1.32 6.46-3.63 7.66-8.18.0652053-.3705271.3328556-.6731019.6926559-.7830374.3598003-.1099356.7508559-.0086259 1.0120183.2621809.2611623.2708067.3482309.6652775.2253258 1.0208565-1.35 5.16-4.16 8-9 9.59-.5208862.143473-1.0615453-.15274-1.2210049-.6689566s.1199484-1.0657487.6310049-1.2410434z" fill="#4c8056"/><path id="Shape" d="m37 14.08c-.8870264 1.5869222-1.6687136 3.2304698-2.34 4.92-2.37-4.59-6.33-7.07-11.63-8.25.2342426-1.97889852.7042448-3.92269346 1.4-5.79.0941245-.24799869.2829256-.44843971.5248568-.55721498s.517168-.11697148.7651432-.02278502c1.9772318.77148612 3.8541343 1.77876832 5.59 3 2.3943064 1.75786466 4.3431216 4.0526032 5.69 6.7z" fill="#71c285"/><path id="Shape" d="m37 30c-5.63 0-11.75-1.21-15.74-5-4.66-4.44-5.26-11.41-5.26-14 0-.5522847.4477153-1 1-1 2.01941.0249033 4.0305513.2628883 6 .71 10 2.23 14 9.21 14 19.29z" fill="#24ae5f"/></g></svg>