<svg height="512" viewBox="0 0 58 58" width="512" xmlns="http://www.w3.org/2000/svg"><g id="005---Happy-Thoughts" fill="none"><g fill="#ff5364"><circle id="Oval" cx="2" cy="56" r="2"/><circle id="Oval" cx="9.5" cy="51.5" r="2.5"/><circle id="Oval" cx="16" cy="44" r="3"/></g><path id="Shape" d="m52.86 29.13c.7932669 5.5249567-2.0288423 10.9396744-7.0120966 13.4539527s-11.0153303 1.5668995-14.9879034-2.3539527c-2.6199945 1.0933939-5.5812468 1.0216301-8.1452015-.197393-2.5639548-1.2190232-4.4889205-3.4703943-5.2947985-6.192607-6.65 3.73-14.64-2.08-13.28-9.33.34768125-2.1128165 1.44460217-4.0297657 3.09-5.4-.26613247-1.1819764-.30347147-2.4039801-.11-3.6.83773124-5.4144794 5.8764268-9.14668127 11.3-8.37 2.0481821-4.02626281 6.0396321-6.70064148 10.5423071-7.06362887s8.8709906 1.63746091 11.5376929 5.28362887c2.4571694-.70816559 5.099579-.33763495 7.2672069 1.01904066 2.167628 1.35667562 3.6557975 3.57139298 4.0927931 6.09095934 3.4625119 1.1527069 5.8861972 4.2822011 6.1360762 7.9229815.249879 3.6407805-1.7235184 7.0720611-4.9960762 8.6870185z" fill="#df4d60"/><path id="Shape" d="m52.86 26.13c.1570964.9752309.1906943 1.9663694.1 2.95l-.09.05v.41c-.6068369 4.9069576-3.9447131 9.0448847-8.6121295 10.6763589-4.6674165 1.6314742-9.8562671.4740257-13.3878705-2.9863589-2.6199945 1.0933939-5.5812468 1.0216301-8.1452015-.197393-2.5639548-1.2190232-4.4889205-3.4703943-5.2947985-6.192607-2.5525291 1.4420368-5.6474602 1.5504493-8.29463543.2905531-2.64717525-1.2598962-4.51479901-3.7301862-5.00536457-6.6205531.34768125-2.1128165 1.44460217-4.0297657 3.09-5.4-.26613247-1.1819764-.30347147-2.4039801-.11-3.6.83773124-5.4144794 5.8764268-9.14668127 11.3-8.37 2.0469129-4.03071142 6.0408111-6.70864098 10.546879-7.07173744 4.5060679-.36309647 8.8772236 1.64078167 11.543121 5.29173744 2.4571694-.70816559 5.099579-.33763495 7.2672069 1.01904066 2.167628 1.35667562 3.6557975 3.57139298 4.0927931 6.09095934 3.1340172 1.0540088 5.4377116 3.7416522 6 7-.4775256 2.9039661-2.3446795 5.3910151-5 6.66z" fill="#ff5364"/><path id="Shape" d="m25 20c-.5522847 0-1-.4477153-1-1v-1c0-.5522847.4477153-1 1-1s1 .4477153 1 1v1c0 .5522847-.4477153 1-1 1z" fill="#fff"/><path id="Shape" d="m39 20c-.5522847 0-1-.4477153-1-1v-1c0-.5522847.4477153-1 1-1s1 .4477153 1 1v1c0 .5522847-.4477153 1-1 1z" fill="#fff"/><path id="Shape" d="m32 28c-2.7614237 0-5-2.2385763-5-5 0-.5522847.4477153-1 1-1s1 .4477153 1 1c0 1.6568542 1.3431458 3 3 3s3-1.3431458 3-3c0-.5522847.4477153-1 1-1s1 .4477153 1 1c0 2.7614237-2.2385763 5-5 5z" fill="#fff"/></g></svg>