<svg height="512" viewBox="0 0 50 59" width="512" xmlns="http://www.w3.org/2000/svg"><g id="006---Meditation-Book" fill="none" transform="translate(-1)"><path id="Shape" d="m49 2v7h-43c-2.64 0-4-4.28-2.13-6.83.48443941-.70554122 1.2746946-1.13962506 2.13-1.17h42c.5522847 0 1 .44771525 1 1z" fill="#f5efca"/><path id="Shape" d="m47 2v7h-42c-2.209139 0-4-1.790861-4-4s1.790861-4 4-4h41c.5522847 0 1 .44771525 1 1z" fill="#f5efca"/><path id="Shape" d="m51 10v48c0 .5522847-.4477153 1-1 1h-44v-49z" fill="#e64c3c"/><path id="Shape" d="m6 9v50h-1c-2.209139 0-4-1.790861-4-4v-50c0 2.209139 1.790861 4 4 4z" fill="#c03a2b"/><path id="Shape" d="m47 6h-40c-.55228475 0-1-.44771525-1-1s.44771525-1 1-1h40c.5522847 0 1 .44771525 1 1s-.4477153 1-1 1z" fill="#f3d55b"/><circle id="Oval" cx="28" cy="17" fill="#fdd7ad" r="4"/><path id="Shape" d="m38.35 48h-20.7c-1.4032813.00256-2.5652758-1.0892763-2.65-2.49-.0031792-.7876404.3679802-1.5299591 1-2 .19-.14 1-.77 6.26-4.92.4782788-.3878254.7512496-.9743438.74-1.59v-6l-3-1-.5-2.5c1.34-1.34 2.2-2.5 4.16-2.5h8.68c2 0 2.82 1.16 4.16 2.5l-.5 2.5-3 1v6c-.0002437.6120547.2797807 1.1905261.76 1.57l6.14 4.83c.9516386.6272918 1.3611467 1.8170369.9971947 2.8971526s-1.4099834 1.7794072-2.5471947 1.7028474z" fill="#7d6599"/><g fill="#c03a2b"><path id="Shape" d="m32 54h-16c-.5522847 0-1-.4477153-1-1s.4477153-1 1-1h16c.5522847 0 1 .4477153 1 1s-.4477153 1-1 1z"/><path id="Shape" d="m38 54h-2c-.5522847 0-1-.4477153-1-1s.4477153-1 1-1h2c.5522847 0 1 .4477153 1 1s-.4477153 1-1 1z"/><path id="Shape" d="m6.18 8c-1.2474109.08067854-2.41411678-.62056928-2.92818984-1.75998662-.51407305-1.13941733-.26776193-2.47817868.61818984-3.36001338.56451724-.56522499 1.33115385-.88195748 2.13-.88h43c0-1.1045695-.8954305-2-2-2h-41c-1.34713806-.00038803-2.63743694.54283675-3.57864597 1.5066348-.94120903.96379804-1.4536854 2.26661511-1.42135403 3.6133652.15536737 2.77266382 2.47338976 4.9273208 5.25 4.88h44.75v-1c0-.55228475-.4477153-1-1-1z"/></g><path id="Shape" d="m30 48h-6c-1.1045695 0-2-.8954305-2-2s.8954305-2 2-2h6z" fill="#fdd7ad"/><path id="Shape" d="m32 41c-.5522847 0-1-.4477153-1-1v-10c0-.5522847.4477153-1 1-1s1 .4477153 1 1v10c0 .5522847-.4477153 1-1 1z" fill="#5d4c72"/><path id="Shape" d="m34 44h-9c-.5522847 0-1-.4477153-1-1s.4477153-1 1-1h9c.5522847 0 1 .4477153 1 1s-.4477153 1-1 1z" fill="#5d4c72"/><path id="Shape" d="m24 41c-.5522847 0-1-.4477153-1-1v-10c0-.5522847.4477153-1 1-1s1 .4477153 1 1v10c0 .5522847-.4477153 1-1 1z" fill="#5d4c72"/><path id="Shape" d="m23 31-3.41 3.41c-.3757964.3780394-.8869554.5904224-1.42.59h-5.06c-1.0658137.0237045-1.9770039-.7622511-2.11-1.82-.0506881-.5608639.1374286-1.1171078.5181351-1.5320779s.9187198-.6502079 1.4818649-.6479221c2.8 0 2.91.09 3.29-.29l3.21-3.21z" fill="#fdd7ad"/><path id="Shape" d="m45 33.18c-.1329961 1.0577489-1.0441863 1.8437045-2.11 1.82h-5.06c-.5330446.0004224-1.0442036-.2119606-1.42-.59l-3.41-3.41 3.5-3.5 3.21 3.21c.1862606.1847442.4376601.2888954.7.29h2.59c.5631451-.0022858 1.1011584.232952 1.4818649.6479221s.5688232.971214.5181351 1.5320779z" fill="#fdd7ad"/></g></svg>