<svg height="512" viewBox="0 0 59 58" width="512" xmlns="http://www.w3.org/2000/svg"><g id="007---Foggy-Head" fill="none"><path id="Shape" d="m16 18.91c-.34-.26-1.93-1.35-3.28-.71-1.5.71 0 5.57 0 5.57.8610068 1.9575868 2.4603771 3.4958575 4.45 4.28h25.75c1.9896229-.7841425 3.5889932-2.3224132 4.45-4.28 0 0 1.45-4.86 0-5.57s-2.94.45-3.28.71z" fill="#f9c795"/><path id="Shape" d="m40.07 42.13c1.7035692 1.5670574 3.7627693 2.6961854 6 3.29 2.67.47 4.18 1.63 9.33 4.37 1.73.9 3.6 1.33 3.6 3.21v3c0 1.1045695-.8954305 2-2 2h-54c-1.1045695 0-2-.8954305-2-2 0-3-.09-3.46.27-4.07.6-1 2.28-1.6 3.29-2.14 1.44-.79 2.86-1.53 4.26-2.32 4.73-2.73 4.83-1.41 8.06-3.2 1.084322-.6116865 2.1058993-1.3284653 3.05-2.14z" fill="#4482c3"/><path id="Shape" d="m20 38.26v4.74c0 5.5228475 4.4771525 10 10 10s10-4.4771525 10-10v-4.74z" fill="#f9c795"/><path id="Shape" d="m43.9 11.5c-.5-10.95-12.9-11.5-12.9-11.5h-2s-12.4.55-12.9 11.5 1 12.05 1 15.88-1 7.12 3 11 3.9 7.62 7.9 7.62h4c4 0 4-3.83 7.94-7.67s3-7.12 3-10.95 1.46-4.93.96-15.88z" fill="#fdd7ad"/><path id="Shape" d="m40 15c0 1.6568542-1.3431458 3-3 3h-14c-1.4820369-.0286929-2.7209516-1.1354923-2.9158776-2.6049346s.7125778-2.8609707 2.1358776-3.2750654c-.2424897-.6858643-.2424897-1.4341357 0-2.12.4177356-1.18205736 1.5264647-1.97970424 2.78-2 .3700545.00093266.7365591.07219745 1.08.21.378554-1.86425918 2.0176947-3.20401005 3.92-3.20401005s3.541446 1.33975087 3.92 3.20401005c.3434409-.13780255.7099455-.20906734 1.08-.21 1.2682549.00356437 2.3972517.8042713 2.82 2 .2433013.6857249.2433013 1.4342751 0 2.12 1.287927.3659671 2.1774294 1.5410896 2.18 2.88z" fill="#df4d60"/><g fill="#ff5364"><path id="Shape" d="m39.82 14c-.4227483 1.1957287-1.5517451 1.9964356-2.82 2h-14c-1.2682549-.0035644-2.3972517-.8042713-2.82-2 .326754-.9089536 1.0711677-1.6049804 2-1.87-.2581244-.6366943-.2898944-1.3426949-.09-2h.09s0-.07 0-.11c.4382268-1.33292103 1.7572758-2.17041245 3.15-2 .2578988.02658376.5105508.09058891.75.19.378554-1.86425918 2.0176947-3.20401005 3.92-3.20401005s3.541446 1.33975087 3.92 3.20401005c.2383917-.10628252.4910794-.17703508.75-.21 1.3936425-.17449461 2.715077.66451139 3.15 2v.11h.09c.1998944.6573051.1681244 1.3633057-.09 2 .9333255.2690708 1.6786168.9733711 2 1.89z"/><path id="Shape" d="m22 12.17c.6470418-.2287638 1.3529582-.2287638 2 0z"/><path id="Shape" d="m27.24 9c-.3169578-.3534183-.7150439-.62452865-1.16-.79z"/><path id="Shape" d="m25.81 8.12c-.0804045-.03067378-.1644321-.05084041-.25-.06z"/><path id="Shape" d="m36 12.17c.6470418-.2287638 1.3529582-.2287638 2 0z"/><path id="Shape" d="m34.44 8.06c-.0855679.00915959-.1695955.02932622-.25.06z"/><path id="Shape" d="m33.92 8.21c-.4449561.16547135-.8430422.4365817-1.16.79z"/></g></g></svg>