<svg height="512" viewBox="0 0 58 58" width="512" xmlns="http://www.w3.org/2000/svg"><g id="008---Excercise-Checklist" fill="none"><path id="Shape" d="m45 3c1.6568542 0 3 1.34314575 3 3v36l-1.32 15.49c-.496612.3337285-1.0816719.511336-1.68.51h-42c-1.65685425 0-3-1.3431458-3-3v-49c0-1.65685425 1.34314575-3 3-3z" fill="#a56a43"/><path id="Shape" d="m2 54v-47c0-1.1045695.8954305-2 2-2h40c1.1045695 0 2 .8954305 2 2v47c0 1.1045695-.8954305 2-2 2h-40c-1.1045695 0-2-.8954305-2-2z" fill="#f9eab0"/><rect id="Rectangle-path" fill="#a5a5a4" height="6" rx="1" width="22" x="13"/><rect id="Rectangle-path" fill="#bdc3c7" height="6" rx="1" width="18" x="15"/><rect id="Rectangle-path" fill="#f3d55b" height="12" rx="2" width="12" x="6" y="10"/><rect id="Rectangle-path" fill="#f3d55b" height="12" rx="2" width="12" x="6" y="26"/><rect id="Rectangle-path" fill="#f3d55b" height="12" rx="2" width="12" x="6" y="42"/><path id="Shape" d="m13 19c-.3765582-.0011413-.7205498-.2137203-.89-.55l-1-2c-.2013504-.4835272.0045141-1.0404963.4719378-1.2768341s1.0380149-.0719586 1.3080622.3768341l.48 1 6.05-4.32c.2871216-.2458559.6883341-.3088036 1.036953-.1626914.348619.1461123.5850572.4763105.611086.8534132s-.1628007.7366542-.488039.9292782c-7.58 5.36-7.12 5.15-7.58 5.15z" fill="#4fba6f"/><path id="Shape" d="m13 35c-.3765582-.0011413-.7205498-.2137203-.89-.55l-1-2c-.1932607-.3211808-.1906728-.7234705.0067041-1.0421383.1973768-.3186678.5563928-.5001928.9300368-.4702434s.6991617.2663431.8432591.6123817l.48 1 6.05-4.32c.2871216-.2458559.6883341-.3088036 1.036953-.1626914.348619.1461123.5850572.4763105.611086.8534132s-.1628007.7366542-.488039.9292782c-7.58 5.36-7.12 5.15-7.58 5.15z" fill="#4fba6f"/><g fill="#7f6e5d"><path id="Shape" d="m42 13h-17c-.5522847 0-1-.4477153-1-1s.4477153-1 1-1h17c.5522847 0 1 .4477153 1 1s-.4477153 1-1 1z"/><path id="Shape" d="m33 19h-8c-.5522847 0-1-.4477153-1-1s.4477153-1 1-1h8c.5522847 0 1 .4477153 1 1s-.4477153 1-1 1z"/><path id="Shape" d="m42 29h-17c-.5522847 0-1-.4477153-1-1s.4477153-1 1-1h17c.5522847 0 1 .4477153 1 1s-.4477153 1-1 1z"/><path id="Shape" d="m33 35h-8c-.5522847 0-1-.4477153-1-1s.4477153-1 1-1h8c.5522847 0 1 .4477153 1 1s-.4477153 1-1 1z"/></g><rect id="Rectangle-path" fill="#95a5a5" height="4" rx="1" width="34" x="24" y="48"/><path id="Shape" d="m30 54c-1.1045695 0-2-.8954305-2-2v-4c0-1.1045695.8954305-2 2-2s2 .8954305 2 2v4c0 1.1045695-.8954305 2-2 2z" fill="#285680"/><path id="Shape" d="m52 54c1.1045695 0 2-.8954305 2-2v-4c0-1.1045695-.8954305-2-2-2s-2 .8954305-2 2v4c0 1.1045695.8954305 2 2 2z" fill="#285680"/><path id="Shape" d="m34 58c-1.1045695 0-2-.8954305-2-2v-12c0-1.1045695.8954305-2 2-2s2 .8954305 2 2v12c0 1.1045695-.8954305 2-2 2z" fill="#3b97d3"/><path id="Shape" d="m48 58c1.1045695 0 2-.8954305 2-2v-12c0-1.1045695-.8954305-2-2-2s-2 .8954305-2 2v12c0 1.1045695.8954305 2 2 2z" fill="#3b97d3"/></g></svg>