<svg height="512" viewBox="0 0 59 58" width="512" xmlns="http://www.w3.org/2000/svg"><g id="009---Negative-Thinking" fill="none" transform="translate(0 -1)"><path id="Shape" d="m28.78 46.15c-.782898 1.7630048-1.0765143 3.7043261-.85 5.62.1806476 2.0301452.7331735 4.0097472 1.63 5.84.1307452.3086973.0981074.6623717-.0869231.9419286s-.4978333.4477983-.8330769.4480714h-12.91c-.4508611.022062-.8606053-.2606615-1-.69-.49-1.46-1.43-3.3-2.82-4-1.7536793.6250995-3.53956856 1.1558591-5.35 1.59-.88183278.2089184-1.76935963-.3235977-2-1.2-.53-1.43.18-2 0-2.78-.15-.61-.75-.76-1.22-1.09s.31-1.11.31-1.11-.72-.54-1-.76c-.42-.36.78-1.11.56-2.27-.12-.65-1.13-.89-1.62-1.25-.78-.58-1-.81.06-2.07 1.09035655-1.3478476 2.02619888-2.8136651 2.79-4.37.10279991-.1627886.1645668-.3480892.18-.54 0-.86-1.29-1.22-1.41-2s.76-1.81 1-3c.15214702-.715029.34920423-1.419759.59-2.11 1.5-4 4.13-5.68 8.15-6.49 6.57-1.29 10.55-1.52 15.93 2.64 2.54 2 4.14 4.61 4.08 9.83-.04 4.43-2.89 5.93-4.18 8.82z" fill="#fdd7ad"/><path id="Shape" d="m19 51.6c0 1.7-1.35 3.08-4.18 3.89l-1.22.4c-.3914716-.6428293-.9426847-1.1733719-1.6-1.54.64-.22 2-.69 2.31-.78 2.46-.78 2.69-1.57 2.69-1.92 0-.5522847.4477153-1 1-1 .5333335-.0006671.9733337.4173332 1 .95z" fill="#f9c795"/><circle id="Oval" cx="46.5" cy="35.5" fill="#ff5364" r="2.5"/><circle id="Oval" cx="39" cy="40" fill="#ff5364" r="2"/><path id="Shape" d="m53 22c.2399597 2.8921478-1.4693082 5.5920716-4.1861376 6.6123352-2.7168294 1.0202635-5.7807782.112848-7.5038624-2.2223352-2.2625877 1.0896678-4.9507639.7761979-6.9019193-.8048371-1.9511554-1.5810349-2.8150589-4.14584-2.2180807-6.5851629h-.19c-2.3789572-.2557648-4.4242264-1.799722-5.3220314-4.0175586-.897805-2.2178367-.5024999-4.7497655 1.0286304-6.58837729 1.5311302-1.83861178 3.949699-2.68563879 6.293401-2.20406411 1.3404067-2.65324256 3.8465957-4.52512157 6.771159-5.05739601 2.9245632-.53227443 5.9295658.3365603 8.118841 2.34739601 1.846716-.85004227 4.0242581-.49731935 5.5082002.89223007 1.4839422 1.38954942 1.9788129 3.5392484 1.2517998 5.43776993 2.5331457 1.3815694 3.8523072 4.2677031 3.2393617 7.0872525-.6129455 2.8195495-3.0112635 4.8975354-5.8893617 5.1027475z" fill="#df4d60"/><path id="Shape" d="m53 20c.2566103 2.8994844-1.4516432 5.6142731-4.1766473 6.6376066-2.7250041 1.0233334-5.797974.1040597-7.5133527-2.2476066-2.2625877 1.0896678-4.9507639.7761979-6.9019193-.8048371-1.9511554-1.5810349-2.8150589-4.14584-2.2180807-6.5851629-3.0797791-.1434824-5.633533-2.4339196-6.11-5.48.2740776-1.80822918 1.2995036-3.41644273 2.8232739-4.42784531 1.5237704-1.01140258 3.4039808-1.33180518 5.1767261-.88215469 1.3418193-2.62809648 3.8297997-4.48247901 6.7317339-5.0174068 2.9019343-.53492778 5.8875793.31047451 8.0782661 2.2874068 1.846716-.85004227 4.0242581-.49731935 5.5082002.89223007 1.4839422 1.38954942 1.9788129 3.5392484 1.2517998 5.43776993 1.7565629.9687286 2.9644383 2.6974308 3.27 4.68-.4513618 2.9901472-2.9051982 5.2740388-5.92 5.51z" fill="#ff5364"/><g fill="#fff"><path id="Shape" d="m37 13c-.5522847 0-1-.4477153-1-1v-1c0-.5522847.4477153-1 1-1s1 .4477153 1 1v1c0 .5522847-.4477153 1-1 1z"/><path id="Shape" d="m49 13c-.5522847 0-1-.4477153-1-1v-1c0-.5522847.4477153-1 1-1s1 .4477153 1 1v1c0 .5522847-.4477153 1-1 1z"/><path id="Shape" d="m46 19c-.5522847 0-1-.4477153-1-1 0-1.1045695-.8954305-2-2-2s-2 .8954305-2 2c0 .5522847-.4477153 1-1 1-2.1 0-.81-5 3-5s5.1 5 3 5z"/></g></g></svg>