<svg height="512" viewBox="0 0 58 47" width="512" xmlns="http://www.w3.org/2000/svg"><g id="010---Lotus-Flower" fill="none"><path id="Shape" d="m49.89 34.76h-.13c5.76-4.89 8.14-13.25 8.16-20.8 0-.5522847-.4477153-1-1-1-3.0301567.0163665-6.048957.3719141-9 1.06-.2485809-2.8154451-.9229225-5.57687398-2-8.19-.21159-.49536565-.7775322-.73412253-1.28-.54-2.9754995 1.17602905-5.7724409 2.76129909-8.31 4.71-1.6754893-3.56797486-3.9140927-6.84315625-6.63-9.7-.3888435-.38114288-1.0111565-.38114288-1.4 0-2.7221844 2.85390571-4.9645109 6.12959359-6.64 9.7-2.5240395-1.90717006-5.2962127-3.46147106-8.24-4.62-.5024678-.19412253-1.06841.04463435-1.28.54-1.0771744 2.61657337-1.7515006 5.3813108-2 8.2-2.99422541-.7193443-6.06067829-1.0951022-9.14-1.12-.55228475 0-1 .4477153-1 1 0 7.5 2.4 16 8.13 20.77h-.02c-1.57256427 2.1554683-2.85363569 4.5091428-3.81 7-.18546158.4887418.03680026 1.0378592.51 1.26 2.61 1.24 11.03 4.68 18.19 1.97 2.2729255-.869873 4.3228382-2.2364815 6-4 1.6771618 1.7635185 3.7270745 3.130127 6 4 7.13 2.75 15.55-.69 18.16-1.91.4731997-.2221408.6954616-.7712582.51-1.26-.9413951-2.5136423-2.2125115-4.8911007-3.78-7.07z" fill="#7ed09e"/><path id="Shape" d="m10.11 14.07c.2484994-2.8186892.9228256-5.58342663 2-8.2.21159-.49536565.7775322-.73412253 1.28-.54 5.61 2.18 11.61 6.19 14.15 11.61.8710229 1.9075982 1.3667073 3.9650279 1.46 6.06v15.71z" fill="#71c285"/><path id="Shape" d="m29 37.77v-14.77c.0932927-2.0949721.5889771-4.1524018 1.46-6.06 2.54-5.39 8.54-9.43 14.12-11.61.5024678-.19412253 1.06841.04463435 1.28.54 1.0770775 2.61312602 1.7514191 5.3745549 2 8.19z" fill="#4fba6f"/><path id="Shape" d="m29 41c-1.6771618 1.7635185-3.7270745 3.130127-6 4-7.13 2.75-15.55-.69-18.16-1.91-.47319974-.2221408-.69546158-.7712582-.51-1.26.95636431-2.4908572 2.23743573-4.8445317 3.81-7z" fill="#4c8056"/><path id="Shape" d="m49.89 34.76c1.5725643 2.1554683 2.8536357 4.5091428 3.81 7 .1854616.4887418-.0368003 1.0378592-.51 1.26-2.61 1.25-11.03 4.69-18.19 1.98-2.2729255-.869873-4.3228382-2.2364815-6-4z" fill="#4c8056"/><path id="Shape" d="m57.92 14c0 7.54-2.36 15.8-8.11 20.76-5.51 4.7-13.47 6.24-20.81 6.24v-3.23c.3-4.41 1.64-12.41 7.18-17.76 5.2-5 13.63-7 20.75-7 .5445018.0054183.9845817.4454982.99.99z" fill="#24ae5f"/><path id="Shape" d="m29 38.71v2.29h-1c-7.15 0-15.53-2-20.74-7-6.66-6.47-7.26-16.79-7.26-20 0-.5522847.44771525-1 1-1 7.12 0 15.53 2 20.75 7 5.98 5.77 7.08 14.59 7.25 18.71z" fill="#24ae5f"/><g fill="#4c8056"><path id="Shape" d="m41.63 33.91c5.31-2.13 8.62-5.68 10.35-12.17.08292-.3559124.3533831-.6382491.7054069-.7363747s.7295401.0035886.9846169.2652854c.2550768.2616967.3470871.6416946.2399762.9910893-1.91 7.05-5.61 11.13-11.54 13.51-.5136248.2043453-1.0956546-.0463752-1.3-.56-.2043453-.5136248.0463752-1.0956546.56-1.3z"/><path id="Shape" d="m53.72 19c-.2893572.0024569-.565592-.1205483-.7573608-.3372471-.1917688-.2166987-.2802674-.5058422-.2426392-.7927529 0-.28.07-.56.1-.82.0277136-.2639475.1592149-.5060524.3655381-.6729866.2063232-.1669343.4705437-.2450042.7344619-.2170134.5453664.0578161.9424141.544088.89 1.09 0 .29-.07.58-.11.88-.0646651.4934588-.4823553.8642654-.98.87z"/></g></g></svg>