<svg height="512" viewBox="0 0 58 58" width="512" xmlns="http://www.w3.org/2000/svg"><g id="012---Positive-Communication" fill="none"><path id="Shape" d="m55 51v5.75c-.0005642.4536008-.2468146.8712997-.6434313 1.0914115-.3966167.2201119-.8813507.2080903-1.2665687-.0314115l-7.59-4.81z" fill="#2980ba"/><path id="Shape" d="m20 40-12.94 7.7c-.61714573.3857192-1.39510506.4057578-2.03128988.0523218-.63618481-.353436-1.03016829-1.024554-1.02871012-1.7523218l-.00000403-8z" fill="#e57e25"/><path id="Shape" d="m46 4v25l-17 11h-25c-2.209139 0-4-1.790861-4-4v-32c0-2.209139 1.790861-4 4-4h38c2.209139 0 4 1.790861 4 4z" fill="#f29c1f"/><rect id="Rectangle-path" fill="#3b97d3" height="24" rx="2.5" width="29" x="29" y="29"/><circle id="Oval" cx="44" cy="41" fill="#f3d55b" r="8"/><path id="Shape" d="m40.06 43.35c-.1932997-.5191477.0708523-1.0967003.59-1.29s1.0967003.0708523 1.29.59c.3590349.8173131 1.1673036 1.3450691 2.06 1.3450691s1.7009651-.527756 2.06-1.3450691c.125043-.3358297.4197504-.5794394.7731089-.6390639.3533585-.0596244.7116845.0737948.94.35s.2919341.6532342.1668911.9890639c-.6567297 1.5973533-2.2129124 2.6401235-3.94 2.6401235s-3.2832703-1.0427702-3.94-2.6401235z" fill="#464f5d"/><path id="Shape" d="m42 40c-.5522847 0-1-.4477153-1-1v-1c0-.5522847.4477153-1 1-1s1 .4477153 1 1v1c0 .5522847-.4477153 1-1 1z" fill="#464f5d"/><path id="Shape" d="m46 40c-.5522847 0-1-.4477153-1-1v-1c0-.5522847.4477153-1 1-1s1 .4477153 1 1v1c0 .5522847-.4477153 1-1 1z" fill="#464f5d"/><g fill="#d25627"><path id="Shape" d="m40 7h-34c-.55228475 0-1-.44771525-1-1s.44771525-1 1-1h34c.5522847 0 1 .44771525 1 1s-.4477153 1-1 1z"/><path id="Shape" d="m40 16h-34c-.55228475 0-1-.4477153-1-1s.44771525-1 1-1h34c.5522847 0 1 .4477153 1 1s-.4477153 1-1 1z"/><path id="Shape" d="m40 25h-34c-.55228475 0-1-.4477153-1-1s.44771525-1 1-1h34c.5522847 0 1 .4477153 1 1s-.4477153 1-1 1z"/><path id="Shape" d="m24 34h-18c-.55228475 0-1-.4477153-1-1s.44771525-1 1-1h18c.5522847 0 1 .4477153 1 1s-.4477153 1-1 1z"/></g></g></svg>