<svg height="512" viewBox="0 0 60 59" width="512" xmlns="http://www.w3.org/2000/svg"><g id="013---Yoga" fill="none"><circle id="Oval" cx="19" cy="11" fill="#fdd7ad" r="5"/><path id="Shape" d="m59 9c0 2.209139-1.790861 4-4 4h-10c-2.209139 0-4-1.790861-4-4s1.790861-4 4-4c0-2.76142375 2.2385763-5 5-5s5 2.23857625 5 5c2.209139 0 4 1.790861 4 4z" fill="#bdc3c7"/><path id="Shape" d="m58.7 7.5c-.61012 1.50826659-2.0730078 2.49670429-3.7 2.5h-10c-1.6269922-.00329571-3.08988-.99173341-3.7-2.5.61012-1.50826659 2.0730078-2.49670429 3.7-2.5 0-2.76142375 2.2385763-5 5-5s5 2.23857625 5 5c1.6269922.00329571 3.08988.99173341 3.7 2.5z" fill="#ecf0f1"/><path id="Shape" d="m32.41 17.41-8.41 9.59v8.25l-4.38 1-5.62-1v-8.25l-8.41-9.59c-.47667454-.4565057-.69743622-1.1187907-.59-1.77l1-5.48 2-.67 2 1.34-.61 3.35c-.12435654.7101167.1430841 1.4322064.7 1.89l5.38 4.47c.3598241.2981623.8126957.460913 1.28.46h4.56c.4673043.000913.9201759-.1618377 1.28-.46l5.38-4.47c.5569159-.4577936.8243565-1.1798833.7-1.89l-.67-3.35 1.72-1.38 2.22.71 1 5.48c.1227793.6411388-.0750609 1.3018503-.53 1.77z" fill="#26b99a"/><path id="Shape" d="m32.67 43-4.44 4-2.23-.21-1.27-1.24-.25-2.36 2.18-2.19h-6.78l-.43 7.13c-.19.27.65.81.59 1.12l-3.33 1.29-2.71-1.54v-13.75h10v.75h5.91c1.6846069-.0489428 3.2191765.9632508 3.8373568 2.5310993s.1873423 3.3549743-1.0773568 4.4689007z" fill="#955ba5"/><g fill="#fdd7ad"><path id="Shape" d="m11 5.36-1 5.47-4-.67 1-5.41c.16684356-1.04550089 1.09239816-1.79885929 2.15-1.75.57267655.03347459 1.1034091.31124429 1.4573178.76271701.3539087.45147271.4969174 1.0331784.3926822 1.59728299z"/><path id="Shape" d="m32 10.16-4 .67-1-5.47c-.1042352-.56410459.0387735-1.14581028.3926822-1.59728299.3539087-.45147272.8846413-.72924242 1.4573178-.76271701 1.0576018-.04885929 1.9831564.70449911 2.15 1.75z"/><path id="Shape" d="m19.29 50.71-.29 4.79c.0029718.6609097-.2601211 1.2952159-.73 1.76-.7377109.7284385-1.8473703.928364-2.7929245.5031968-.9455543-.4251673-1.5324125-1.3879298-1.4770755-2.4231968v-6.34h5.07c-.1400377.5776272-.0616865 1.1866297.22 1.71z"/><path id="Shape" d="m28.23 46.93-4.76 4.27c-.5068133.509913-1.1960626.7966411-1.915.7966411s-1.4081867-.2867281-1.915-.7966411c-.7757702-.8559229-.8546878-2.1352177-.19-3.08.24-.32-.11.06 5-5 .55.59 3.4 3.39 3.78 3.81z"/></g><path id="Shape" d="m3 59h-2c-.55228475 0-1-.4477153-1-1s.44771525-1 1-1h2c.55228475 0 1 .4477153 1 1s-.44771525 1-1 1z" fill="#4fba6f"/><path id="Shape" d="m59 59h-52c-.55228475 0-1-.4477153-1-1s.44771525-1 1-1h52c.5522847 0 1 .4477153 1 1s-.4477153 1-1 1z" fill="#4fba6f"/></g></svg>