<svg height="512" viewBox="0 0 58 58" width="512" xmlns="http://www.w3.org/2000/svg"><g id="014---Yoga-Session-Date" fill="none"><path id="Shape" d="m58 16.5v31.5l-2.88 6.88-7.12 3.12h-44c-2.209139 0-4-1.790861-4-4v-37.5z" fill="#bdc3c7"/><path id="Shape" d="m56 16.5v31.5l-2.68 6.88-6.63 3.12h-41c-2.11808684-.0973467-3.76346114-1.8809503-3.69-4v-37.5z" fill="#ecf0f1"/><circle id="Oval" cx="29" cy="25" fill="#fdd7ad" r="3"/><path id="Shape" d="m33 38c0 3.74-.42 2.38 4.6 9.84l-1.31 1.79-2.14.28-2.35-3.43c-.6315943-.9253902-1.6796169-1.4789532-2.8-1.4789532s-2.1684057.553563-2.8 1.4789532l-2.35 3.43-2.46-.38-1-1.69c5.01-7.44 4.61-6.09 4.61-9.84 0-1.1045695-.8954305-2-2-2h-3l-1-1.87 1-2.13h18l1 1.81-1 2.19h-3c-1.1045695 0-2 .8954305-2 2z" fill="#4482c3"/><path id="Shape" d="m23.85 49.91-2.27 3.32c-.6793102.8726099-1.9373901 1.0293102-2.81.35s-1.0293102-1.9373901-.35-2.81l2-2.93z" fill="#fdd7ad"/><path id="Shape" d="m39.23 53.58c-.4188119.3268197-.9504414.4735882-1.4776066.4079271-.5271652-.0656612-1.0065483-.3383565-1.3323934-.7579271l-2.27-3.32 3.45-2.07 2 2.93c.3246387.4212926.4681007.9545421.3986683 1.4818531s-.3460401 1.0052488-.7686683 1.3281469z" fill="#fdd7ad"/><path id="Shape" d="m10 55h-1c-.55228475 0-1-.4477153-1-1s.44771525-1 1-1h1c.5522847 0 1 .4477153 1 1s-.4477153 1-1 1z" fill="#955ba5"/><path id="Shape" d="m48 55h-34c-.5522847 0-1-.4477153-1-1s.4477153-1 1-1h34c.5522847 0 1 .4477153 1 1s-.4477153 1-1 1z" fill="#955ba5"/><path id="Shape" d="m54 6c2.209139 0 4 1.790861 4 4v8h-58v-8c0-2.209139 1.790861-4 4-4z" fill="#e64c3c"/><path id="Shape" d="m11 12c-1.65685425 0-3-1.3431458-3-3v-6c0-1.65685425 1.34314575-3 3-3 1.6568542 0 3 1.34314575 3 3v6c0 1.6568542-1.3431458 3-3 3z" fill="#bdc3c7"/><path id="Shape" d="m47 12c-1.6568542 0-3-1.3431458-3-3v-6c0-1.65685425 1.3431458-3 3-3s3 1.34314575 3 3v6c0 1.6568542-1.3431458 3-3 3z" fill="#bdc3c7"/><path id="Shape" d="m58 48v6c0 2.209139-1.790861 4-4 4h-6z" fill="#95a5a5"/><path id="Shape" d="m58 48-10 10v-6c0-2.209139 1.790861-4 4-4z" fill="#bdc3c7"/><path id="Shape" d="m39 11h-20c-.5522847 0-1-.4477153-1-1 0-.55228475.4477153-1 1-1h20c.5522847 0 1 .44771525 1 1 0 .5522847-.4477153 1-1 1z" fill="#c03a2b"/><g fill="#fdd7ad"><path id="Shape" d="m20 32v4.0000165l-4-.0000165c-.5631451.0022858-1.1011584-.232952-1.4818649-.6479221s-.5688232-.971214-.5181351-1.5320779c.1329961-1.0577489 1.0441863-1.8437045 2.11-1.82z"/><path id="Shape" d="m44 33.82c.0506881.5608639-.1374286 1.1171078-.5181351 1.5320779s-.9187198.6502079-1.4818649.6479221l-4 .0000165v-4.0000165h3.89c1.0658137-.0237045 1.9770039.7622511 2.11 1.82z"/></g></g></svg>