<svg height="512" viewBox="0 0 42 58" width="512" xmlns="http://www.w3.org/2000/svg"><g id="015---Mediation-App" fill="none"><path id="Rectangle-path" d="m0 5h42v47h-42z" fill="#90bae1"/><path id="Shape" d="m42 5v2h-42v-2c0-2.76142375 2.23857625-5 5-5h32c1.3260824 0 2.597852.5267842 3.5355339 1.46446609.9376819.9376819 1.4644661 2.20945146 1.4644661 3.53553391z" fill="#3f5c6c"/><path id="Shape" d="m42 50v3c0 2.7614237-2.2385763 5-5 5h-32c-2.76142375 0-5-2.2385763-5-5v-3z" fill="#3f5c6c"/><path id="Shape" d="m42 7s-42 0-42 43v-43z" fill="#b0d3f0"/><path id="Shape" d="m22 55h-2c-.5522847 0-1-.4477153-1-1s.4477153-1 1-1h2c.5522847 0 1 .4477153 1 1s-.4477153 1-1 1z" fill="#95a5a5"/><circle id="Oval" cx="21" cy="15" fill="#fdd7ad" r="4"/><path id="Shape" d="m38 48h-34c-.55228475 0-1-.4477153-1-1s.44771525-1 1-1h34c.5522847 0 1 .4477153 1 1s-.4477153 1-1 1z" fill="#3d324c"/><path id="Shape" d="m11 16c0 2.209139-1.790861 4-4 4h-7v-13h2c2.76142375 0 5 2.23857625 5 5 2.209139 0 4 1.790861 4 4z" fill="#bdc3c7"/><path id="Shape" d="m10.87 15c-.4557202 1.7649988-2.04711774 2.9986403-3.87 3h-7v-11h2c2.76142375 0 5 2.23857625 5 5 1.82288226.0013597 3.4142798 1.2350012 3.87 3z" fill="#ecf0f1"/><path id="Shape" d="m33 7c0 4.9705627 4.0294373 9 9 9v-9z" fill="#f3d55b"/><path id="Shape" d="m31.35 46h-20.7c-1.40328134.00256-2.56527577-1.0892763-2.65-2.49-.0031792-.7876404.36798017-1.5299591 1-2 .19-.14 1-.77 6.26-4.92.4782788-.3878254.7512496-.9743438.74-1.59v-6l-3-1-.5-2.5c1.34-1.34 2.2-2.5 4.16-2.5h8.68c2 0 2.82 1.16 4.16 2.5l-.5 2.5-3 1v6c-.0002437.6120547.2797807 1.1905261.76 1.57l6.14 4.83c.9516386.6272918 1.3611467 1.8170369.9971947 2.8971526s-1.4099834 1.7794072-2.5471947 1.7028474z" fill="#7d6599"/><path id="Shape" d="m23 46h-6c-1.1045695 0-2-.8954305-2-2s.8954305-2 2-2h6z" fill="#fdd7ad"/><g fill="#5d4c72"><path id="Shape" d="m25 39c-.5522847 0-1-.4477153-1-1v-10c0-.5522847.4477153-1 1-1s1 .4477153 1 1v10c0 .5522847-.4477153 1-1 1z"/><path id="Shape" d="m27 42h-9c-.5522847 0-1-.4477153-1-1s.4477153-1 1-1h9c.5522847 0 1 .4477153 1 1s-.4477153 1-1 1z"/><path id="Shape" d="m17 39c-.5522847 0-1-.4477153-1-1v-10c0-.5522847.4477153-1 1-1s1 .4477153 1 1v10c0 .5522847-.4477153 1-1 1z"/></g><path id="Shape" d="m16 29-3.41 3.41c-.3757964.3780394-.8869554.5904224-1.42.59h-5.06c-1.06581369.0237045-1.97700391-.7622511-2.11-1.82-.05068812-.5608639.1374286-1.1171078.51813512-1.5320779s.91871977-.6502079 1.48186488-.6479221c2.8 0 2.91.09 3.29-.29l3.21-3.21z" fill="#fdd7ad"/><path id="Shape" d="m38 31.18c-.1329961 1.0577489-1.0441863 1.8437045-2.11 1.82h-5.06c-.5330446.0004224-1.0442036-.2119606-1.42-.59l-3.41-3.41 3.5-3.5 3.21 3.21c.1862606.1847442.4376601.2888954.7.29h2.59c.5631451-.0022858 1.1011584.232952 1.4818649.6479221s.5688232.971214.5181351 1.5320779z" fill="#fdd7ad"/></g></svg>