<svg height="512" viewBox="0 0 58 56" width="512" xmlns="http://www.w3.org/2000/svg"><g id="016---Work-Life-Balance" fill="none"><path id="Shape" d="m17 7h-10c-.55228475 0-1-.44771525-1-1v-3c0-1.65685425 1.34314575-3 3-3h6c1.6568542 0 3 1.34314575 3 3v3c0 .55228475-.4477153 1-1 1zm-9-2h8v-2c0-.55228475-.4477153-1-1-1h-6c-.55228475 0-1 .44771525-1 1z" fill="#a56a43"/><path id="Shape" d="m42.07 56h-26.14c-1.1172581-.0046568-2.135322-.6421919-2.6273302-1.6452947-.4920081-1.0031029-.3729208-2.198395.3073302-3.0847053l15.39-20.27 15.39 20.27c.680251.8863103.7993383 2.0816024.3073302 3.0847053-.4920082 1.0031028-1.5100721 1.6406379-2.6273302 1.6452947z" fill="#26b99a"/><path id="Shape" d="m58 7.25c0 4.17-2.56 5.83-4.26 7.5-1.9 1.87-7 6-7.24 6.25-.38-.38-5.22-4.26-7.24-6.25-1.7-1.67-4.26-3.33-4.26-7.5s2.74-6.47 6.41-6.25c1.8831613.12118093 3.6073248 1.09747007 4.68 2.65.0905248.13832007.2446907.22167184.41.22167184s.3194752-.08335177.41-.22167184c1.1611667-1.66261683 3.0620459-2.65226908 5.09-2.65 3.44 0 6 2.08 6 6.25z" fill="#df4d60"/><path id="Shape" d="m56 7.25c0 4.17-2.11 5.83-3.52 7.5-1.55 1.86-5.91 6.14-6 6.24s-4.89-4.91-6-6.24c-1.37-1.67-3.48-3.33-3.48-7.5 0-3.91 1.85-6 4.41-6.23 1.8831613.12118093 3.6073248 1.09747007 4.68 2.65.0905248.13832007.2446907.22167184.41.22167184s.3194752-.08335177.41-.22167184c1.0684473-1.56011598 2.793282-2.54415628 4.68-2.67 2.56.27 4.41 2.34 4.41 6.25z" fill="#ff5364"/><path id="Shape" d="m52 11.91c-.4145071.0030772-.7879412-.249894-.9388241-.6359768s-.047931-.8252278.2588241-1.1040232c1.34-1.23 1.68-1.68 1.68-2.92 0-.55228475.4477153-1 1-1s1 .44771525 1 1c0 2.1-.88 3.06-2.32 4.39-.1844231.1726652-.4273651.2691275-.68.27z" fill="#fff"/><path id="Shape" d="m55.5 26h-53c-1.38071187 0-2.5-1.1192881-2.5-2.5s1.11928813-2.5 2.5-2.5h53c1.3807119 0 2.5 1.1192881 2.5 2.5s-1.1192881 2.5-2.5 2.5z" fill="#3b97d3"/><path id="Shape" d="m36 26c0 3.8659932-3.1340068 7-7 7s-7-3.1340068-7-7z" fill="#2980ba"/><path id="Shape" d="m39.92 53h-21.84c-.5522847 0-1-.4477153-1-1s.4477153-1 1-1h21.84c.5522847 0 1 .4477153 1 1s-.4477153 1-1 1z" fill="#33907c"/><path id="Shape" d="m21 13v5c0 1.6568542-1.3431458 3-3 3h-12c-1.65685425 0-3-1.3431458-3-3v-5z" fill="#a56a43"/><path id="Shape" d="m21 13c.5522847 0 1-.4477153 1-1v-4c0-1.65685425-1.3431458-3-3-3h-14c-1.65685425 0-3 1.34314575-3 3v4c0 .5522847.44771525 1 1 1z" fill="#f29c1f"/><rect id="Rectangle-path" fill="#f3d55b" height="5" rx="1" width="4" x="10" y="11"/></g></svg>