<svg height="512" viewBox="0 0 58 58" width="512" xmlns="http://www.w3.org/2000/svg"><g id="017---Mindfulness-Website" fill="none"><path id="Shape" d="m58 4v4h-58v-4c0-2.209139 1.790861-4 4-4h50c2.209139 0 4 1.790861 4 4z" fill="#464f5d"/><path id="Shape" d="m58 8v46c0 2.209139-1.790861 4-4 4h-50c-2.209139 0-4-1.790861-4-4v-46z" fill="#ecf0f1"/><circle id="Oval" cx="5" cy="4" fill="#e64c3c" r="1"/><circle id="Oval" cx="9" cy="4" fill="#f0c419" r="1"/><circle id="Oval" cx="13" cy="4" fill="#24ae5f" r="1"/><path id="Shape" d="m26.55 26.18c.7114848 1.399197.5388218 3.0852143-.4415002 4.3111554-.9803219 1.2259411-2.5870842 1.7651831-4.1084998 1.3788446l-2-8.87z" fill="#df4d60"/><g fill="#95a5a5"><path id="Shape" d="m52 15h-19c-.5522847 0-1-.4477153-1-1s.4477153-1 1-1h19c.5522847 0 1 .4477153 1 1s-.4477153 1-1 1z"/><path id="Shape" d="m52 20h-12c-.5522847 0-1-.4477153-1-1s.4477153-1 1-1h12c.5522847 0 1 .4477153 1 1s-.4477153 1-1 1z"/><path id="Shape" d="m36 20h-3c-.5522847 0-1-.4477153-1-1s.4477153-1 1-1h3c.5522847 0 1 .4477153 1 1s-.4477153 1-1 1z"/><path id="Shape" d="m52 25h-1c-.5522847 0-1-.4477153-1-1s.4477153-1 1-1h1c.5522847 0 1 .4477153 1 1s-.4477153 1-1 1z"/><path id="Shape" d="m47 25h-14c-.5522847 0-1-.4477153-1-1s.4477153-1 1-1h14c.5522847 0 1 .4477153 1 1s-.4477153 1-1 1z"/><path id="Shape" d="m52 30h-12c-.5522847 0-1-.4477153-1-1s.4477153-1 1-1h12c.5522847 0 1 .4477153 1 1s-.4477153 1-1 1z"/><path id="Shape" d="m36 30h-3c-.5522847 0-1-.4477153-1-1s.4477153-1 1-1h3c.5522847 0 1 .4477153 1 1s-.4477153 1-1 1z"/><path id="Shape" d="m45 35h-12c-.5522847 0-1-.4477153-1-1s.4477153-1 1-1h12c.5522847 0 1 .4477153 1 1s-.4477153 1-1 1z"/><path id="Shape" d="m25 43h-1c-.5522847 0-1-.4477153-1-1s.4477153-1 1-1h1c.5522847 0 1 .4477153 1 1s-.4477153 1-1 1z"/><path id="Shape" d="m20 43h-14c-.55228475 0-1-.4477153-1-1s.44771525-1 1-1h14c.5522847 0 1 .4477153 1 1s-.4477153 1-1 1z"/><path id="Shape" d="m25 48h-19c-.55228475 0-1-.4477153-1-1s.44771525-1 1-1h19c.5522847 0 1 .4477153 1 1s-.4477153 1-1 1z"/><path id="Shape" d="m20 53h-14c-.55228475 0-1-.4477153-1-1s.44771525-1 1-1h14c.5522847 0 1 .4477153 1 1s-.4477153 1-1 1z"/></g><path id="Shape" d="m53 44.1c-.48 5.67-4.24 7.9-10 7.9 0-5.58 3-8.66 9-9 .2834878-.0014214.554257.117548.7449539.3273146s.2833988.4906154.2550461.7726854z" fill="#24ae5f"/><path id="Shape" d="m47.29 44.1c-3 1.36-4.29 4.42-4.29 7.58 0-1-.2-4.35-2.51-6.43-.5376858-.4708572-1.1405803-.8615598-1.79-1.16 1.0549143-1.6918961 2.2561834-3.2880114 3.59-4.77.1785392-.2057719.4375696-.3239643.71-.3239643s.5314608.1181924.71.3239643c1.3343795 1.4826553 2.5325502 3.0824475 3.58 4.78z" fill="#4fba6f"/><path id="Shape" d="m43 52c-5.76 0-9.52-2.23-10-7.9-.0223758-.2787824.0730176-.5541957.2630338-.7594132.1900161-.2052174.4572887-.3214833.7369662-.3205868 5.73.3 9 3.11 9 8.98z" fill="#24ae5f"/><path id="Shape" d="m22 23.16v11.06c0 .4307821-.3492179.78-.78.78h-2.44c-.4307821 0-.78-.3492179-.78-.78v-1.22c0-.5522847-.4477153-1-1-1s-1-.4477153-1-1v-7z" fill="#802d40"/><path id="Shape" d="m27.19 22.12c.7403844.6686155.9991759 1.7205976.6534823 2.6563923s-1.226235 1.5668938-2.2234823 1.5936077c-.3463611-.000727-.6881252-.0793328-1-.23-.682137.8724601-1.8251331 1.2442305-2.89.94-.9889595 1.1147253-2.6891181 1.2304429-3.82.26-.6094297.5223056-1.4172257.7511356-2.2100451.6260549-.7928193-.1250807-1.4909291-.591493-1.9099549-1.2760549-.6463962.7134681-1.6188313 1.0369564-2.5638059.8528704-.9449747-.1840859-1.72487589-.8489384-2.0561941-1.7528704-.99828628.3656506-2.11753701.1343919-2.88916235-.5969562-.77162534-.7313482-1.06249705-1.8366068-.75083765-2.8530438-.56485256-.8035235-.67442486-1.8418698-.28973104-2.745595.38469382-.9037251 1.20903813-1.5445258 2.17973104-1.694405-.16901239-1.0091124.22994302-2.0295012 1.03859462-2.6563629s1.89627948-.7588631 2.83140538-.3436371c.3653896-.697804 1.0115174-1.2062422 1.7756793-1.3972827.764162-.1910405 1.5735398-.0464787 2.2243207.3972827.9671366-1.0615904 2.594486-1.1844092 3.71-.28.7242397-.543195 1.6487083-.7450297 2.5334411-.5531137.8847329.191916 1.6424823.758657 2.0765589 1.5531137.9309251-.1265045 1.8637168.2188977 2.4877496.9211854s.8573481 1.6692246.6222504 2.5788146c.7093912.377488 1.1885719 1.078852 1.2823469 1.8769367.0937749.7980848-.2097787 1.5914201-.8123469 2.1230633z" fill="#fb7b76"/></g></svg>