<svg height="512" viewBox="0 0 58 58" width="512" xmlns="http://www.w3.org/2000/svg"><g id="018---Relaxation-Candles" fill="none" transform="translate(0 -1)"><path id="Shape" d="m22 20v31c0 2.76 5.82 5 13 5s13-2.24 13-5v-31z" fill="#f0785a"/><ellipse id="Oval" cx="35" cy="20" fill="#f9c795" rx="13" ry="5"/><path id="Shape" d="m0 20v31c0 2.76 5.82 5 13 5s13-2.24 13-5v-31z" fill="#955ba5"/><ellipse id="Oval" cx="13" cy="20" fill="#b49aca" rx="13" ry="5"/><path id="Shape" d="m13 21c-.5522847 0-1-.4477153-1-1v-3c0-.5522847.4477153-1 1-1s1 .4477153 1 1v3c0 .5522847-.4477153 1-1 1z" fill="#a56a43"/><g fill="#894b9d"><path id="Shape" d="m7 42c-1.65685425 0-3-1.3431458-3-3v-4c0-.5522847.44771525-1 1-1s1 .4477153 1 1v4c0 .5522847.44771525 1 1 1s1-.4477153 1-1v-2c0-.5522847.44771525-1 1-1s1 .4477153 1 1v2c0 1.6568542-1.34314575 3-3 3z"/><path id="Shape" d="m17 50c-1.6568542 0-3-1.3431458-3-3v-4c0-.5522847.4477153-1 1-1s1 .4477153 1 1v4c0 .5522847.4477153 1 1 1s1-.4477153 1-1v-2c0-.5522847.4477153-1 1-1s1 .4477153 1 1v2c0 1.6568542-1.3431458 3-3 3z"/><path id="Shape" d="m19 38c-1.6568542 0-3-1.3431458-3-3v-2c0-.5522847.4477153-1 1-1s1 .4477153 1 1v2c0 .5522847.4477153 1 1 1s1-.4477153 1-1v-4c0-.5522847.4477153-1 1-1s1 .4477153 1 1v4c0 1.6568542-1.3431458 3-3 3z"/></g><path id="Shape" d="m35 21c-.5522847 0-1-.4477153-1-1v-3c0-.5522847.4477153-1 1-1s1 .4477153 1 1v3c0 .5522847-.4477153 1-1 1z" fill="#a56a43"/><path id="Shape" d="m19 10.12c0 3.8-2.69 6.88-6 6.88s-6-3.08-6-6.88c0-3 3.87-7.3 5.39-8.86.158645-.16757467.3792414-.26250541.61-.26250541s.451355.09493074.61.26250541c1.52 1.56 5.39 5.81 5.39 8.86z" fill="#f0c419"/><path id="Shape" d="m13 17c-2.21 0-4.06-3-2.31-5.64.4795975-.6972186 1.0005305-1.36508147 1.56-2 .189833-.21525044.4629994-.33856217.75-.33856217s.560167.12331173.75.33856217c.5571606.63682989 1.0779865 1.3045554 1.56 2 1.78 2.7-.15 5.64-2.31 5.64z" fill="#f29c1f"/><path id="Shape" d="m29 10.12c0 3.8 2.69 6.88 6 6.88s6-3.08 6-6.88c0-3-3.87-7.3-5.39-8.86-.158645-.16757467-.3792414-.26250541-.61-.26250541s-.451355.09493074-.61.26250541c-1.52 1.56-5.39 5.81-5.39 8.86z" fill="#f0c419"/><path id="Shape" d="m35 17c2.21 0 4.06-3 2.31-5.64-.4795975-.6972186-1.0005305-1.36508147-1.56-2-.189833-.21525044-.4629994-.33856217-.75-.33856217s-.560167.12331173-.75.33856217c-.5571606.63682989-1.0779865 1.3045554-1.56 2-1.78 2.7.15 5.64 2.31 5.64z" fill="#f29c1f"/><path id="Shape" d="m45.75 40.9c-1.9051486 1.4112815-3.4559948 3.2462783-4.53 5.36-1.0785005-2.1253698-2.6444716-3.9654715-4.57-5.37 1.0500735-2.0656606 2.3977828-3.9659307 4-5.64.1439415-.1568816.3470893-.2461907.56-.2461907s.4160585.0893091.56.2461907c1.5948317 1.6793839 2.935667 3.5828311 3.98 5.65z" fill="#7ed09e"/><path id="Shape" d="m52.4 43.56c-2.6000434.4968602-5.0181505 1.6851871-7 3.44-3.88 3.69-4.21 9.59-4.21 11.43.005155-2.8620663-.6339738-5.6885878-1.87-8.27.8925887-2.2628022 2.0686444-4.4032236 3.5-6.37 1.9221215-2.4332491 4.4899047-4.2767858 7.41-5.32.4026116-.1367934.8418875.0652735 1 .46.5743471 1.4908023.9671721 3.0453149 1.17 4.63z" fill="#4fba6f"/><path id="Shape" d="m58 43.8c0 2.07-.48 7.64-4.21 11.19-3.2 3-8.11 4-12.59 4 0-4.41 1.07-9 4.21-12s7.69-3.94 11.78-4c.2164801-.0055535.4257493.0780009.5788742.2311258s.2366793.3623941.2311258.5788742z" fill="#24ae5f"/><path id="Shape" d="m47.36 54.14c3.1344647-.8170265 5.5173664-3.3673542 6.12-6.55.1657383-.3494591.5577459-.530305.9311693-.4295789.3734235.100726.6213119.4541755.5888307.8395789-.7527086 3.7054085-3.5309785 6.6694123-7.18 7.66-.3981898.0690618-.785354-.1696968-.9024147-.5565061s.0727491-.8001784.4424147-.9634939z" fill="#4c8056"/><path id="Shape" d="m41.22 46.26c-.7107377 1.2593015-1.3419714 2.5618471-1.89 3.9-1.9-3.66-5.06-5.65-9.3-6.6.1831123-1.5832344.5592398-3.1381189 1.12-4.63.1540834-.3985353.597118-.6023312 1-.46 1.582994.6216164 3.0841143 1.4343035 4.47 2.42 1.9362102 1.4012709 3.5126467 3.2415892 4.6 5.37z" fill="#71c285"/><path id="Shape" d="m41.2 59c-4.48 0-9.39-1-12.59-4-3.73-3.55-4.17-9.12-4.21-11.19-.0000167-.2139172.0856401-.4189306.237839-.5692505s.3582605-.2334235.572161-.2307495c4.13.06 8.79 1.16 11.78 4 3.17 2.99 4.21 7.61 4.21 11.99z" fill="#24ae5f"/></g></svg>