<svg height="512" viewBox="0 0 58 58" width="512" xmlns="http://www.w3.org/2000/svg"><g id="019---Positive-Music" fill="none" transform="translate(0 -1)"><path id="Shape" d="m45 29.8c-3.4929102-5.4539701-9.5234105-8.7530492-16-8.7530492s-12.5070898 3.2990791-16 8.7530492v20.44c3.4929102 5.4539701 9.5234105 8.7530492 16 8.7530492s12.5070898-3.2990791 16-8.7530492z" fill="#f3d55b"/><path id="Shape" d="m55 33.41c-.5522847 0-1-.4477153-1-1 .1127883-2.4343853.009047-4.873978-.31-7.29-.0720196-.5364312.2958262-1.0328015.83-1.12.2626722-.0432206.5317362.0200752.7475919.1758667s.3606854.391219.4024081.6541333c.3312728 2.5121705.4416954 5.0485446.33 7.58 0 .5522847-.4477153 1-1 1z" fill="#bdc3c7"/><path id="Shape" d="m3 33.41c-.55228475 0-1-.4477153-1-1-.10923864-2.5414366.00117143-5.0875597.33-7.61.05716249-.3572656.30058174-.6568968.63856406-.7860254.33798233-.1291286.71918018-.068137 1 .16.28081983.228137.41859843.5887598.36143594.9460254-.32467984 2.4155212-.43510997 4.8550233-.33 7.29 0 .2652165-.10535684.5195704-.29289322.7071068s-.44189029.2928932-.70710678.2928932z" fill="#bdc3c7"/><circle id="Oval" cx="21.5" cy="34.5" fill="#fff" r="3.5"/><circle id="Oval" cx="36.5" cy="34.5" fill="#fff" r="3.5"/><path id="Shape" d="m38 43c.2873798-.0020776.5617624.1195851.7531669.3339581s.2813271.5007322.2468331.7860419c-.5129662 5.1104059-4.8139136 9.0012508-9.95 9.0012508s-9.4370338-3.8908449-9.95-9.0012508c-.034494-.2853097.0554286-.5716689.2468331-.7860419s.4657871-.3360357.7531669-.3339581z" fill="#e57e25"/><path id="Shape" d="m5 32h4v18h-4c-1.32608245 0-2.59785201-.5267842-3.53553391-1.4644661-.93768189-.9376819-1.46446609-2.2094515-1.46446609-3.5355339v-8c0-2.7614237 2.23857625-5 5-5z" fill="#4482c3"/><path id="Shape" d="m10 29h2c.5522847 0 1 .4477153 1 1v22c0 .5522847-.4477153 1-1 1h-2c-1.65685425 0-3-1.3431458-3-3v-18c0-1.6568542 1.34314575-3 3-3z" fill="#35495e"/><path id="Shape" d="m54 32h4v18h-4c-2.7614237 0-5-2.2385763-5-5v-8c0-2.7614237 2.2385763-5 5-5z" fill="#4482c3" transform="matrix(-1 0 0 -1 107 82)"/><path id="Shape" d="m48 29h2c.5522847 0 1 .4477153 1 1v22c0 .5522847-.4477153 1-1 1h-2c-1.6568542 0-3-1.3431458-3-3v-18c0-1.6568542 1.3431458-3 3-3z" fill="#35495e" transform="matrix(-1 0 0 -1 96 82)"/><circle id="Oval" cx="22" cy="35" fill="#393f4a" r="1"/><circle id="Oval" cx="36" cy="35" fill="#393f4a" r="1"/><path id="Shape" d="m54.3 25c-.9249799-.0029524-1.7272582-.6398125-1.94-1.54-2.5540775-10.8370499-12.2260446-18.49451183-23.36-18.49451183s-20.80592252 7.65746193-23.36 18.49451183c-.1422523.718071-.66543818 1.3010553-1.3639893 1.5198887-.69855113.2188333-1.46084457.038548-1.98736271-.470019-.52651813-.508567-.73312754-1.2641506-.53864799-1.9698697 2.98506389-12.63639997 14.2658092-21.5628034 27.25-21.5628034s24.2649361 8.92640343 27.25 21.5628034c.140756.5955712.0010919 1.2228064-.3790643 1.7023881-.3801562.4795816-.9589585.7587194-1.5709357.7576119z" fill="#285680"/></g></svg>