<svg height="512" viewBox="0 0 58 60" width="512" xmlns="http://www.w3.org/2000/svg"><g id="020---Good-Sleep" fill="none" transform="translate(-1)"><path id="Shape" d="m58.37 58.11c-1.28 1.43-3.6 1-5.2-.07-.7-.45-1.27-1.28-2.1-1.48-.8329437-.0569331-1.6671737.0906878-2.43.43-10.06 2.72-25.91 2.63-35.81.37-1.21-.28-2.95-1.2-4.16-.72-.76.3-1.32 1.1-2 1.52-2.97 1.78-5.67.52-5.67-1.83 0-1.9 1.44-2.64 2.22-4.1.67-1.24-.3-2.66-.68-3.85-2.25336463-7.3702083-2.03564042-15.275002.62-22.51.58-1.56 0-2.09-1-3.28-2.72-3.39-.46-6.82 3.63-5.17 1.51.62 2.43 2.31 4.18 2 1.4-.26 2.78-.77 4.19-1 9.0241933-1.5958331 18.236775-1.828423 27.33-.69 2.91.37 5.64 1.16 8.49 1.73 1.76.35 2.68-1.36 4.19-2 4-1.62 6.62 1.75 3.32 5.53-1 1.18-1 1.9-.49 3.39 2.5367781 7.3129181 2.624531 15.2528013.25 22.62-.41 1.2-1.27 2.62-.09 3.69 1.36 1.31 2.69 3.75 1.21 5.42z" fill="#2980ba"/><path id="Shape" d="m55.28 54.06c1 1.14 2.07 3.18 1.62 4.88-1.3112714.1611472-2.6364983-.1586127-3.73-.9-.7-.45-1.27-1.28-2.1-1.48-.8329437-.0569331-1.6671737.0906878-2.43.43-10.06 2.72-25.91 2.63-35.81.37-1.21-.28-2.95-1.2-4.16-.72-.76.3-1.32 1.1-2 1.52-1.0368953.6846504-2.29407779.952516-3.52.75-.08913631-.2955717-.13955696-.6014569-.15-.91 0-2 1.35-2.87 2.08-4.45.62-1.36-.29-2.91-.64-4.22-2.08788453-8.0910858-1.89405338-16.6023499.56-24.59.54-1.7 0-2.28-.9-3.58-.86162564-1.1771964-1.22124582-2.6480429-1-4.09.92156671-.1391198 1.86367387-.0178928 2.72.35 1.51.62 2.43 2.31 4.18 2 2.37-.44 2.92-1.08 9.33-1.83 7.3750019-.8368372 14.82284-.8032732 22.19.1 2.91.37 5.64 1.16 8.49 1.73 1.76.35 2.68-1.36 4.19-2 .8563261-.3678928 1.7984333-.4891198 2.72-.35.2241162 1.6119585-.2527388 3.24273-1.31 4.48-1 1.3-1 2.08-.45 3.71 2.357826 8.068818 2.4270685 16.6341173.2 24.74-.36 1.35-1.18 2.9-.08 4.06z" fill="#3b97d3"/><path id="Shape" d="m10.4 53c-.3465932-.0010489-.66792859-.1814922-.84923693-.4768822-.18130833-.2953899-.19673232-.6635996-.04076307-.9731178 3.31-6.46 3.33-20.6 0-27.1-.23180591-.4885634-.03322691-1.0728952.44826578-1.3190516.48149272-.2461563 1.07144282-.064949 1.33173422.4090516 3.61 7.05 3.61 21.87 0 28.92-.1722037.3323996-.5156433.5407787-.89.54z" fill="#2980ba"/><g fill="#9fc9d3"><path id="Shape" d="m30 27h-4c-.4062651.0023626-.77358-.2413038-.929371-.6165185-.1557909-.3752147-.0690889-.807391.219371-1.0934815l2.3-2.29h-1.59c-.5522847 0-1-.4477153-1-1s.4477153-1 1-1h4c.4062651-.0023626.77358.2413038.929371.6165185.1557909.3752147.0690889.807391-.219371 1.0934815l-2.3 2.29h1.59c.5522847 0 1 .4477153 1 1s-.4477153 1-1 1z"/><path id="Shape" d="m42 22h-7c-.4062651.0023626-.77358-.2413038-.929371-.6165185-.1557909-.3752147-.0690889-.807391.219371-1.0934815l5.3-5.29h-4.59c-.5522847 0-1-.4477153-1-1s.4477153-1 1-1h7c.4062651-.0023626.77358.2413038.929371.6165185.1557909.3752147.0690889.807391-.219371 1.0934815l-5.3 5.29h4.59c.5522847 0 1 .4477153 1 1s-.4477153 1-1 1z"/><path id="Shape" d="m52 11h-9c-.4062651.0023626-.77358-.2413038-.929371-.6165185-.1557909-.3752147-.0690889-.80739104.219371-1.0934815l7.3-7.29h-6.59c-.5522847 0-1-.44771525-1-1s.4477153-1 1-1h9c.4062651-.00236262.77358.24130378.929371.61651849.1557909.37521472.0690889.80739105-.219371 1.09348151l-7.3 7.29h6.59c.5522847 0 1 .44771525 1 1 0 .5522847-.4477153 1-1 1z"/></g><path id="Shape" d="m26 36c-.5522847 0-1-.4477153-1-1v-1c0-.5522847.4477153-1 1-1s1 .4477153 1 1v1c0 .5522847-.4477153 1-1 1z" fill="#fff"/><path id="Shape" d="m40 36c-.5522847 0-1-.4477153-1-1v-1c0-.5522847.4477153-1 1-1s1 .4477153 1 1v1c0 .5522847-.4477153 1-1 1z" fill="#fff"/><path id="Shape" d="m33 44c-2.7614237 0-5-2.2385763-5-5 0-.5522847.4477153-1 1-1s1 .4477153 1 1c0 1.6568542 1.3431458 3 3 3s3-1.3431458 3-3c0-.5522847.4477153-1 1-1s1 .4477153 1 1c0 2.7614237-2.2385763 5-5 5z" fill="#fff"/><path id="Shape" d="m8.91 41c-.59 9.27-3.22 9.38-3.82 0z" fill="#9fc9d3"/><path id="Shape" d="m8.91 41h-3.82c-.12010819-1.9981968-.12010819-4.0018032 0-6h3.82c.12010819 1.9981968.12010819 4.0018032 0 6z" fill="#84b5cb"/><path id="Shape" d="m8.91 35h-3.82c.59-9.27 3.22-9.38 3.82 0z" fill="#9fc9d3"/></g></svg>