<svg height="512" viewBox="0 0 58 58" width="512" xmlns="http://www.w3.org/2000/svg"><g id="021---Increased-Positivity" fill="none"><circle id="Oval" cx="23" cy="35" fill="#24ae5f" r="23"/><ellipse id="Oval" cx="23" cy="35" fill="#4fba6f" rx="21" ry="23"/><circle id="Oval" cx="49" cy="9" fill="#3b97d3" r="9"/><g fill="#fff"><path id="Shape" d="m49 14c-.5522847 0-1-.4477153-1-1v-8c0-.55228475.4477153-1 1-1s1 .44771525 1 1v8c0 .5522847-.4477153 1-1 1z"/><path id="Shape" d="m53 10h-8c-.5522847 0-1-.44771525-1-1s.4477153-1 1-1h8c.5522847 0 1 .44771525 1 1s-.4477153 1-1 1z"/><circle id="Oval" cx="15.5" cy="30.5" r="4.5"/><circle id="Oval" cx="30.5" cy="30.5" r="4.5"/></g><path id="Shape" d="m32 39c.2873798-.0020776.5617624.1195851.7531669.3339581s.2813271.5007322.2468331.7860419c-.5129662 5.1104059-4.8139136 9.0012508-9.95 9.0012508s-9.4370338-3.8908449-9.95-9.0012508c-.0336508-.268702.0431129-.5395634.2127403-.7506552.1696273-.2110917.4176134-.3443636.6872597-.3693448z" fill="#4c8056"/><circle id="Oval" cx="15.5" cy="31.5" fill="#464f5d" r="1.5"/><circle id="Oval" cx="30.5" cy="31.5" fill="#464f5d" r="1.5"/></g></svg>