<svg height="512" viewBox="0 0 58 59" width="512" xmlns="http://www.w3.org/2000/svg"><g id="023---Stressed" fill="none"><circle id="Oval" cx="23" cy="36" fill="#df4d60" r="23"/><ellipse id="Oval" cx="23" cy="36" fill="#ff5364" rx="21" ry="23"/><path id="Shape" d="m58 15c-.0819768 3.7850791-3.21484 6.7881522-7 6.71h-12c-3.5231829.0810585-6.5412651-2.5058691-7-6-.3175771-3.3404287 1.7799309-6.43635049 5-7.38-.0138071-4.41827795 3.556722-8.01119276 7.975-8.02499988s8.0111928 3.55672193 8.025 7.97499988c2.9708167.88572163 5.0052227 3.6199633 5 6.72z" fill="#bdc3c7"/><path id="Shape" d="m57.86 13.63c-.7384307 3.1810541-3.5947003 5.4169387-6.86 5.37h-12c-3.2517606.0265662-6.0935965-2.1897344-6.86-5.35.4868373-2.5565976 2.3631337-4.6259287 4.86-5.36-.0027614-4.418278 3.576722-8.00223858 7.995-8.005s8.0022386 3.576722 8.005 7.995c2.4866076.74435462 4.3571933 2.8035384 4.86 5.35z" fill="#ecf0f1"/><path id="Shape" d="m49.88 24.39-.48-.15c-.383545-.1175683-.7045428-.3829253-.8921543-.737511-.1876115-.3545856-.2264144-.7692521-.1078457-1.152489l1.6-5.35c.1707915-.5246382-.1156015-1.0884742-.64-1.26l-4.77-1.53c-.524475-.1634633-1.0826077.1267657-1.25.65l-2.77 9.14c-.2815804.7868728.1249161 1.6534698.91 1.94.3867238.1128334.7112795.3774505.8996807.7335287.1884011.3560783.2245909.7732699.1003193 1.1564713l-2.2 6.86c-.0523053.1368306.0018557.2914277.1281179.3656996s.2877004.0464978.3818821-.0656996l9.45-8.87c.2849072-.2363994.4158982-.6108595.3404756-.9733071-.0754226-.3624475-.3449163-.6535697-.7004756-.7566929z" fill="#f0c419"/><path id="Shape" d="m33 46.83c.068636.3746292-.0814936.7557207-.3872014.9828785-.3057077.2271579-.7139094.2609375-1.0527986.0871215-5.4242647-2.4753968-11.6557353-2.4753968-17.08 0-.3414597.1977547-.7672823.176225-1.0870547-.0549618-.3197723-.2311867-.4736974-.628799-.3929453-1.0150382 1.0631167-4.6458584 5.2347665-7.9122601 10-7.83 4.763941-.0784078 8.9334534 3.1863204 10 7.83z" fill="#802d40"/><circle id="Oval" cx="15.5" cy="30.5" fill="#fff" r="4.5"/><circle id="Oval" cx="30.5" cy="30.5" fill="#fff" r="4.5"/><g fill="#464f5d"><circle id="Oval" cx="15.5" cy="31.5" r="1.5"/><circle id="Oval" cx="30.5" cy="31.5" r="1.5"/></g></g></svg>