<svg height="512" viewBox="0 0 58 58" width="512" xmlns="http://www.w3.org/2000/svg"><g id="024---Friendship" fill="none"><circle id="Oval" cx="40" cy="5" fill="#fdd7ad" r="5"/><path id="Shape" d="m58 26.55c-.0203314 1.0307098-.6664123 1.9450957-1.6311396 2.3085204-.9647272.3634246-2.0535282.1025901-2.7488604-.6585204l-8.62-8.62v15.42h-12v-15c0-.5522847-.4477153-1-1-1h-8l-3-3.69c-.7673587-.8446021-1.8589191-1.3212501-3-1.3101947l27.28.0001947c1.0957-.0013038 2.1439672.4469208 2.9 1.24l9.08 9.54c.472238.4681122.7385356 1.1050672.74 1.77z" fill="#f29c1f"/><circle id="Oval" cx="19" cy="5" fill="#fdd7ad" r="5"/><path id="Shape" d="m15.89 14c-1.0922263.001431-2.1363641.4494348-2.89 1.24l-5 3.76h-2.5c-1.38071187 0-2.5-1.1192881-2.5-2.5s1.11928813-2.5 2.5-2.5z" fill="#f29c1f"/><path id="Shape" d="m45 51h-12v-19h12z" fill="#3b97d3"/><path id="Shape" d="m39 48v7c0 1.6568542-1.3431458 3-3 3s-3-1.3431458-3-3v-7z" fill="#fdd7ad"/><path id="Shape" d="m45 55c0 1.6568542-1.3431458 3-3 3s-3-1.3431458-3-3v-7h6z" fill="#f9c795"/><path id="Rectangle-path" d="m13 31h12v21h-12z" fill="#955ba5"/><path id="Shape" d="m19 48v7c0 1.6568542-1.3431458 3-3 3s-3-1.3431458-3-3v-7z" fill="#fdd7ad"/><path id="Shape" d="m33 26v7l-8-9v11h-12c0-16.1.07-15.42 0-15.42l-8.63 8.62c-.69242528.7643911-1.78197005 1.0274044-2.74686296.6630855-.96489291-.3643188-1.60871115-1.2818055-1.62313704-2.3130855.00791137-.6636157.273228-1.2982244.74-1.77 6.93-7.11 4.49-4.73 9-9.54.7655834-.803234 1.8304279-1.252352 2.94-1.24h8.55c1.143464-.0231075 2.2397185.4555903 3 1.31 3.93 4.57 1.77 2.17 8.77 10.69z" fill="#3b97d3"/><path id="Shape" d="m25 48v7c0 1.6568542-1.3431458 3-3 3s-3-1.3431458-3-3v-7z" fill="#f9c795"/><path id="Shape" d="m40 39v9h-2v-9c0-.5522847.4477153-1 1-1s1 .4477153 1 1z" fill="#2980ba"/><path id="Shape" d="m20 39v9h-2v-9c0-.5522847.4477153-1 1-1s1 .4477153 1 1z" fill="#894b9d"/></g></svg>