<svg height="512" viewBox="0 0 59 58" width="512" xmlns="http://www.w3.org/2000/svg"><g id="026---Deep-Breathing" fill="none"><g fill="#e64c3c"><path id="Shape" d="m16 35h-12c-2.209139 0-4-1.790861-4-4s1.790861-4 4-4c.55228475 0 1 .4477153 1 1s-.44771525 1-1 1c-1.1045695 0-2 .8954305-2 2s.8954305 2 2 2h12c.5522847 0 1 .4477153 1 1s-.4477153 1-1 1z"/><path id="Shape" d="m4 45c-2.209139 0-4-1.790861-4-4s1.790861-4 4-4h5c.55228475 0 1 .4477153 1 1s-.44771525 1-1 1h-5c-1.1045695 0-2 .8954305-2 2s.8954305 2 2 2c.55228475 0 1 .4477153 1 1s-.44771525 1-1 1z"/><path id="Shape" d="m13 37c-.4385565-.0033853-.8237305-.292132-.9499631-.7121422-.1262326-.4200103.0359373-.8732592.3999631-1.1178578l1.75-1.17-1.75-1.17c-.3344065-.1793781-.5384678-.5325821-.5268341-.9118826.0116337-.3793006.2369575-.7193347.5817287-.8778815.3447711-.1585468.749577-.1082846 1.0451054.1297641l3 2c.2764295.1857617.4422366.4969525.4422366.83s-.1658071.6442383-.4422366.83c-3.25 2.17-3.14 2.17-3.55 2.17z"/></g><path id="Shape" d="m53.31 29.75c-1.0575743 2.3596622-1.4517105 4.9630357-1.14 7.53.231935 2.5544725.9087966 5.0487075 2 7.37.2476226.4672234.5248544.9181426.83 1.35-2.92 1.46-6.5 3.75-9.87 4.17-3.7509958.3991146-7.5439926.0003899-11.13-1.17-.16-2.45-1-7.22-3.29-8.24l-.6.2c-.13 0-3.74 1.35-6.58 1.93-1.1711566.2548095-2.3364766-.4531773-2.65-1.61-.75-2.15.41-2.69 0-3.58l-.13-.25c-.1567797-.3111094-.1403468-.6813893.0433761-.9773872.1837229-.295998.508252-.4750458.8566239-.4726128h2.35c1.1045695 0 2-.8954305 2-2s-.8954305-2-2-2h-4c-.5522847 0-1-.4477153-1-1 .0142363-.1429798.0142363-.2870202 0-.43-.16-.87-1.51-1.2-2.17-1.68-1-.77-1.33-1.08.07-2.77 1.4371816-1.8181329 2.6680554-3.790214 3.67-5.88.95-1.73-1.47-2.11-1.65-3.48-.12-.89 1-2.48 1.4-4 .2001288-.9588216.4606479-1.9040385.78-2.83.6970076-1.85993231 1.7615101-3.56041561 3.13-5 2-2.1 5-3.13 7.83-3.69 8.88-1.85 14.2-2.15 21.43 3.43 3.39 2.6 5.58 6.19 5.48 13.2-.08 5.97-3.91 7.97-5.66 11.88z" fill="#fdd7ad"/><path id="Shape" d="m29.2 39c-.3579753.0014245-.6894063-.1886117-.8690104-.498274-.1796041-.3096622-.1799815-.6917095-.0009896-1.001726.893164-1.5470054.893164-3.4529946 0-5-.1970594-.3099891-.2083077-.703062-.0292979-1.0238128.1790099-.3207509.5194594-.5175425.886748-.5125711s.702287.2109055.8725499.5363839c1.2504296 2.1658075 1.2504296 4.8341925 0 7-.1775523.3075445-.5048889.4978565-.86.5z" fill="#f9c795"/><path id="Shape" d="m30.71 40.76c1.1-.36 1.5-.6 3.17-1.13 2.59-.8 4-1.83 4-2.92-.0089317-.3572656.1734141-.6921576.4783493-.8785255.3049353-.1863678.6861332-.1958978 1.0000001-.025s.512719.4962599.5216506.8535255c0 2.13-1.76 3.77-5.38 4.88-.28.09-1.47.51-2.21.75-.3609181-.6572112-.9115263-1.1903952-1.58-1.53z" fill="#f9c795"/><path id="Shape" d="m59 50v7c0 .5522847-.4477153 1-1 1h-36c-.3769993.0009799-.7225085-.2101485-.8936387-.5460708-.1711303-.3359224-.1387929-.7395387.0836387-1.0439292 1.91-2.58 6.22-7.41 12.81-7.41h.08c.4 0 12.57.9 20.44-2.8.54-.2.4-.21.5-.21 2.2052316.0110193 3.9855407 1.8047478 3.98 4.01z" fill="#2980ba"/></g></svg>