<svg height="512" viewBox="0 0 58 59" width="512" xmlns="http://www.w3.org/2000/svg"><g id="027---Mind-Repair" fill="none"><path id="Shape" d="m44 58c0 .1.44 0-11.46 0-1.2011972.0133803-2.3576645-.4551344-3.210842-1.300795-.8531775-.8456605-1.331908-1.9979365-1.329158-3.199205v-1.5c1.5 0 3.39-1.47 4.53-2.28.1632274-.111183.320137-.231369.47-.36 1.8019274 1.514139 4.2441589 2.0213716 6.5 1.35v.77c0 2.86 1.67 6.21 4.5 6.52z" fill="#802d40"/><path id="Shape" d="m54.46 48.06c.0079423 2.6640459-1.8978525 4.9493131-4.52 5.42-.5370124 2.7853806-3.0977605 4.7103063-5.9226589 4.4520889-2.8248985-.2582175-4.9942192-2.6155077-5.0173411-5.4520889v-.77c1.21-.37 2.28-2.05 3.12-3 2.6648991.7363004 5.5135177-.1649132 7.27-2.3 1.1087367.5232067 2.3511411.6942118 3.56.49.51-.08 1 .77 1.46.57.05.38.05.59.05.59z" fill="#ff5364"/><path id="Shape" d="m54.45 47.47c-1.5959911.7085358-3.4214709.68663-5-.06-1.7564823 2.1350868-4.6051009 3.0363004-7.27 2.3-2.5330562 2.7459668-6.7760527 3.0188567-9.64.62-1.5408465 1.293024-3.5634699 1.8607104-5.5521044 1.5583002-1.9886344-.3024103-3.7510727-1.4456884-4.8378956-3.1383002-1.6419663 1.7551594-4.0695791 2.5452022-6.4300417 2.0925941s-4.3236668-2.0845702-5.1999583-4.3225941c-2.35781117.8894952-5.01175642.4429909-6.94870286-1.1690618-1.93694644-1.6120526-2.85790258-4.1408134-2.41129714-6.6209382.18-1 .31-.46-.11-1.15-.67352694-1.0736332-1.03692806-2.3126579-1.05-3.58.00365419-2.9957415 1.9132282-5.6570846 4.75-6.62 4.70812069 4.6793019 11.8165584 5.9655727 17.8658876 3.2328299 6.0493291-2.7327428 9.7830579-8.9168878 9.3841124-15.5428299 1.2288279.1701484 2.3893216.6675028 3.36 1.44 1.7711528-1.2657011 3.9816194-1.7549647 6.121467-1.3549227 2.1398476.4000421 4.0242641 1.6548394 5.218533 3.4749227.49.69-.1.37 1.3.37 2.1536306.0009014 4.1869682.9930968 5.5129519 2.6901216 1.3259837 1.6970247 1.7969963 3.9099551 1.2770481 5.9998784 1.7511951.912082 2.941556 2.6273564 3.1832638 4.5869878.2417079 1.9596315-.4961813 3.912743-1.9732638 5.2230122 3.38 3.44 2.12 8.34-1.55 9.97z" fill="#df4d60"/><path id="Shape" d="m56 37.53c.9350196.8592069 1.5871161 1.9820683 1.87 3.22-.392851 1.8829691-1.6646601 3.4634336-3.42 4.25-1.5959911.7085358-3.4214709.68663-5-.06-1.7564823 2.1350868-4.6051009 3.0363004-7.27 2.3-2.5330562 2.7459668-6.7760527 3.0188567-9.64.62-1.5408465 1.293024-3.5634699 1.8607104-5.5521044 1.5583002-1.9886344-.3024103-3.7510727-1.4456884-4.8378956-3.1383002-1.6476995 1.7721579-4.0938175 2.567645-6.4687215 2.1036535-2.374904-.4639916-4.3417441-2.1216504-5.2012785-4.3836535-1.94244987.7338841-4.11046855.567509-5.91819578-.4541659s-3.06856687-2.7931909-3.44180422-4.8358341c.04058505-.2402307.09738148-.4774393.17-.71-1.25475156-1.8002233-1.59271482-4.0846597-.91295924-6.1710771s2.29855684-3.7333393 4.37295924-4.4489229c4.70812069 4.6793019 11.8165584 5.9655727 17.8658876 3.2328299 6.0493291-2.7327428 9.7830579-8.9168878 9.3841124-15.5428299 1.2288279.1701484 2.3893216.6675028 3.36 1.44 3.4506213-2.470352 8.2297774-1.8164546 10.89 1.49.2768548.3405886.527569.7016171.75 1.08 3.7341551-.5518533 7.2333622 1.9564279 7.91 5.67 0 .15-.06.3-.09.44l.17.09c.0861423.8070683.0285858 1.6230163-.17 2.41 1.7469486.9177607 2.9309294 2.6358448 3.166596 4.5950731.2356666 1.9592282-.5071158 3.9090738-1.986596 5.2149269z" fill="#ff5364"/><circle id="Oval" cx="16" cy="16" fill="#2980ba" r="16"/><path id="Shape" d="m11.37 20.88c-.4062651.0023626-.77358-.2413038-.929371-.6165185-.1557909-.3752147-.0690889-.807391.219371-1.0934815l7.76-7.76c.2536586-.2536586.623374-.3527235.969878-.259878.3465041.0928454.6171546.3634959.71.71.0928455.346504-.0062194.7162194-.259878.969878l-7.76 7.76c-.1887188.1871865-.444197.2915368-.71.29z" fill="#bdc3c7"/><path id="Shape" d="m20 17.21 4.42 4.42c.7182833.721744.7182833 1.888256 0 2.61l-.22.22c-.721744.7182833-1.888256.7182833-2.61 0l-4.38-4.46z" fill="#e57e25"/><path id="Shape" d="m21.25 14c-1.9461602-.0033125-3.6074982-1.4068611-3.9358496-3.3251248-.3283515-1.91826374.7715882-3.79446352 2.6058496-4.4448752.5024753-.12879075 1.020009.14800828 1.1918316.63744211.1718225.48943383-.0591169 1.02899471-.5318316 1.24255789-.873235.31500918-1.4149215 1.18948473-1.3080288 2.1116258.1068928.9221411.8342619 1.6495102 1.756403 1.756403.9221411.1068927 1.7966166-.4347938 2.1116258-1.3080288.2135632-.4727147.7531241-.70365408 1.2425579-.5318316.4894338.1718226.7662329.6893563.6374421 1.1918316-.5637681 1.5990731-2.0744564 2.668977-3.77 2.67z" fill="#bdc3c7"/><path id="Shape" d="m9.92 23.89c.873235-.3150092 1.4149215-1.1894847 1.3080288-2.1116258-.1068928-.9221411-.8342619-1.6495102-1.75640299-1.756403-.92214108-.1068927-1.79661663.4347938-2.11162581 1.3080288-.21356318.4727147-.75312406.7036541-1.24255789.5318316-.48943383-.1718226-.76623286-.6893563-.63744211-1.1918316.61832662-1.7593575 2.37036375-2.8580095 4.22339289-2.6483682 1.85302911.2096414 3.31533391 1.6719462 3.52497531 3.5249753.2096413 1.8530292-.8890107 3.6050663-2.6483682 4.2233929-.5024753.1287908-1.02000905-.1480083-1.19183156-.6374421-.17182252-.4894338.05911683-1.0289947.53183156-1.2425579z" fill="#bdc3c7"/><path id="Shape" d="m18.75 19.5c-.2623399-.0011046-.5137394-.1052558-.7-.29l-7.21-7.14c-.1893127-.1877666-.2957983-.4433625-.2957983-.71s.1064856-.5222334.2957983-.71c.3900375-.3877236 1.0199625-.3877236 1.41 0l7.2 7.14c.2871614.2848091.3744903.714552.2212679 1.0888524s-.5168238.6194518-.9212679.6211476z" fill="#95a5a5"/><path id="Shape" d="m16.25 22c-.4062651.0023626-.77358-.2413038-.929371-.6165185-.1557909-.3752147-.0690889-.807391.219371-1.0934815l5-5c.3921222-.4031678 1.0368321-.4121221 1.44-.02.4031678.3921222.4121221 1.0368321.02 1.44l-5 5c-.1984095.1973505-.4704352.3025337-.75.29z" fill="#f29c1f"/><path id="Shape" d="m8.26350647 7.54656854h3.00000003c.1219996 0 .2390024.04846415.3252691.13473088.0862667.08626674.1347309.20326954.1347309.32526912v2.77999996c0 .762153-.6178471 1.38-1.38 1.38h-1.20000003c-.74262223-.021517-1.33492807-.6270834-1.34-1.37v-2.77999996c0-.12199958.04846415-.23900238.13473088-.32526912.08626674-.08626673.20326954-.13473088.32526912-.13473088z" fill="#bdc3c7" transform="matrix(.707 -.707 .707 .707 -4.11 9.791)"/></g></svg>