<svg height="512" viewBox="0 0 58 58" width="512" xmlns="http://www.w3.org/2000/svg"><g id="028---Compassion" fill="none"><path id="Shape" d="m42.5 16-5.59 4.81c-.385218.2395018-.869952.2515234-1.2665687.0314115-.3966167-.2201118-.6428671-.6378107-.6434313-1.0914115v-4.75z" fill="#df4d60"/><path id="Shape" d="m23 15v4.75c-.0005642.4536008-.2468146.8712997-.6434313 1.0914115-.3966167.2201119-.8813507.2080903-1.2665687-.0314115l-5.59-4.81z" fill="#24ae5f"/><circle id="Oval" cx="18" cy="30" fill="#fdd7ad" r="6"/><path id="Shape" d="m53 46v10c0 1.1045695-.8954305 2-2 2h-18c-1.1045695 0-2-.8954305-2-2 0-10.72 0-10.32.09-11l12.41-5h3.5c3.3137085 0 6 2.6862915 6 6z" fill="#4482c3"/><circle id="Oval" cx="41" cy="30" fill="#fdd7ad" r="6"/><path id="Shape" d="m46 42.5c.0026715.6638566-.2598627 1.3012947-.729284 1.770716s-1.1068594.7319555-1.770716.729284h-16.59c.12.67.09.07.09 12 0 .5522847-.4477153 1-1 1h-19c-1.1045695 0-2-.8954305-2-2v-10c0-3.3137085 2.6862915-6 6-6h32.5c1.3807119 0 2.5 1.1192881 2.5 2.5z" fill="#f3d55b"/><path id="Shape" d="m11 49v9h-2v-9c0-.5522847.44771525-1 1-1 .5522847 0 1 .4477153 1 1z" fill="#f0c419"/><path id="Shape" d="m49 49v9h-2v-9c0-.5522847.4477153-1 1-1s1 .4477153 1 1z" fill="#285680"/><path id="Shape" d="m37 49v9h-2v-9c0-.5522847.4477153-1 1-1s1 .4477153 1 1z" fill="#285680"/><rect id="Rectangle-path" fill="#ff5364" height="16" rx="2.5" width="26" x="32"/><rect id="Rectangle-path" fill="#4fba6f" height="16" rx="2.5" width="26"/><g fill="#fff"><path id="Shape" d="m9 7c-.55228475 0-1-.44771525-1-1v-1c0-.55228475.44771525-1 1-1s1 .44771525 1 1v1c0 .55228475-.44771525 1-1 1z"/><path id="Shape" d="m17 7c-.5522847 0-1-.44771525-1-1v-1c0-.55228475.4477153-1 1-1s1 .44771525 1 1v1c0 .55228475-.4477153 1-1 1z"/><path id="Shape" d="m9.29 10.71c-.39488358-.3893608-.39936073-1.02511639-.00999998-1.41999999.38936074-.39488359 1.02511638-.39936074 1.41999998-.01000001 1.3799736.9698485 3.2200264.9698485 4.6 0 .3900375-.38772359 1.0199625-.38772359 1.41 0 .3811429.38884351.3811429 1.0111565 0 1.4-1.71 1.75-5.71 1.75-7.42.03z"/><path id="Shape" d="m49 7c-.5522847 0-1-.44771525-1-1v-1c0-.55228475.4477153-1 1-1s1 .44771525 1 1v1c0 .55228475-.4477153 1-1 1z"/><path id="Shape" d="m41 7c-.5522847 0-1-.44771525-1-1v-1c0-.55228475.4477153-1 1-1s1 .44771525 1 1v1c0 .55228475-.4477153 1-1 1z"/><path id="Shape" d="m48 12c-.265803.0015368-.5212812-.1028135-.71-.29-1.3823198-.9506854-3.2076802-.9506854-4.59 0-.3900375.3877236-1.0199625.3877236-1.41 0-.3811429-.3888435-.3811429-1.0111565 0-1.4 1.72-1.72 5.7-1.72 7.42 0 .2744138.2877849.3522422.7108115.1982235 1.0774193-.1540187.3666079-.510614.6071251-.9082235.6125807z"/></g></g></svg>