<svg height="512" viewBox="0 0 58 58" width="512" xmlns="http://www.w3.org/2000/svg"><g id="029---Natural-Health-Remedy" fill="none" transform="translate(0 -1)"><path id="Shape" d="m28.92 21 18.54-18.54c1.2647202-1.26472019 3.10809-1.75864965 4.8357299-1.29572993s3.0770803 1.81236009 3.54 3.54-.0310097 3.57100974-1.2957299 4.83572993l-11.46 11.46-6.71 1.5z" fill="#bdc3c7"/><path id="Shape" d="m20 22c-.5522847 0-1-.4477153-1-1 .0318181-3.6902945-.9580319-7.3174373-2.86-10.48l1.72-1c2.0815323 3.4654938 3.1679576 7.4375203 3.14 11.48 0 .5522847-.4477153 1-1 1z" fill="#4c8056"/><path id="Shape" d="m4 26v8c-.00086898 8.6015579 5.01127081 16.4147143 12.83 20l12.34 2 12-2c7.8187292-3.5852857 12.830869-11.3984421 12.83-20v-8l-24-1.5z" fill="#f0c419"/><path id="Shape" d="m29.74 32.32c-.1895245.2085142-.458224.3273931-.74.3273931s-.5504755-.1188789-.74-.3273931c-1.2400324-1.4767028-3.0717137-2.326603-5-2.32-3.59 0-6.26 2.11-6.26 6.34s2.67 5.91 4.44 7.6c1.42 1.35 5.4 4.59 6.94 5.84.3634448.2871976.8765552.2871976 1.24 0 1.54-1.25 5.52-4.49 6.94-5.84 1.77-1.69 4.44-3.38 4.44-7.6s-2.67-6.34-6.22-6.34c-1.9422497-.0185392-3.7910156.8324801-5.04 2.32z" fill="#ff5364"/><path id="Shape" d="m44.5 59h-31c-1.3807119 0-2.5-1.1192881-2.5-2.5s1.1192881-2.5 2.5-2.5h31c1.3807119 0 2.5 1.1192881 2.5 2.5s-1.1192881 2.5-2.5 2.5z" fill="#f29c1f"/><path id="Shape" d="m2.5 26c-1.38071187 0-2.5-1.1192881-2.5-2.5s1.11928813-2.5 2.5-2.5h53c1.3807119 0 2.5 1.1192881 2.5 2.5s-1.1192881 2.5-2.5 2.5z" fill="#f29c1f"/><path id="Shape" d="m28 43c-.54 0-.57-.15-2.71-2.29-.3921221-.3921222-.3921221-1.0278778 0-1.42.3921222-.3921221 1.0278778-.3921221 1.42 0l1.29 1.3 4.29-4.3c.3921222-.3921222 1.0278778-.3921222 1.42 0s.3921222 1.0278778 0 1.42l-5 5c-.1887188.1871865-.444197.2915368-.71.29z" fill="#fff"/><g fill="#4fba6f"><path id="Shape" d="m17 10s-1.21 4.93-4.66 6.49c-2.38 1.08-5.2.27-6.71-.33-.28968524-.1116566-.5110805-.3515265-.59921156-.6492137-.08813107-.2976871-.03300074-.6194232.14921156-.8707863 1.31672232-2.0869687 3.13993194-3.8069778 5.3-5 2.67-1.17 6.52.36 6.52.36z"/><path id="Shape" d="m17 10s4.37 2.39 7.81.83c2.38-1.08 3.7-3.77 4.28-5.32.113472-.28516.0897157-.60663347-.0644404-.87201622-.1541562-.26538275-.4216376-.4452806-.7255596-.48798378-2.395424-.39539927-4.8524996-.16106387-7.13.68-2.68 1.17-4.17 5.17-4.17 5.17z"/></g></g></svg>