<svg height="512" viewBox="0 0 58 58" width="512" xmlns="http://www.w3.org/2000/svg"><g id="030---Excersise" fill="none"><path id="Shape" d="m30.14 26.12c1.1712702 1.1698135 3.0687298 1.1698135 4.24 0l3.81-3.75c.9765764-.9327239 1.0765112-2.4578145.23-3.51-.4562441-.5226777-1.1084824-.833197-1.8018396-.8578245-.6933571-.0246274-1.3659828.2388339-1.8581604.7278245l-1.76 1.73c-.3900375.3877236-1.0199625.3877236-1.41 0-.57-.56.41.34-5.67-5.6-.5726925-.5628486-1.3471202-.8726197-2.15-.86-9.43 0-6.24-.52-15.14 3-2.51849618.9636376-3.81916582 3.7507868-2.94 6.3l1.43 3.95c.24337175.8797213.94684261 1.5568834 1.8351971 1.7665635.88835448.2096801 1.8203742-.081454 2.4314296-.7595032.6110554-.6780491.8040093-1.6352266.5033733-2.4970603l-1-3c-.0811852-.2545962-.0570928-.531095.0669024-.767813.1239951-.2367181.3375768-.4139606.5930976-.492187 2.27-.75 1.27-.43 4.42-1.49v18.99c0 1.35-.19 1.21-3.61 9.91-.5818066 1.5462841.1960816 3.2719443 1.74 3.86.7436963.2935171 1.57379.2780294 2.3060197-.0430252s1.3060119-.9211125 1.5939803-1.6669748c4.15-10.1 4-8.47 4-11.64 0-.8173814.6626186-1.48 1.48-1.48.7 0 .65.09 4.52 3.2.6285642.4090357 1.0054721 1.1100845 1 1.86v7c-.001173.8241632.3367652 1.612512.9344725 2.1799557.5977073.5674436 1.4025365.8640005 2.2255275.8200443 1.6284097-.1464976 2.8675378-1.5252458 2.84-3.16v-8.84c.0004964-1.2944927-.6254847-2.5091943-1.68-3.26l-5.32-4.8v-8.94c.17.16-.59-.61 2.14 2.12z" fill="#fdd7ad"/><path id="Shape" d="m51 54c-.4706972.0137136-.8871845-.3028167-1-.76l-5-20c-.1325483-.5522847.2077153-1.1074517.76-1.24s1.1074517.2077153 1.24.76l5 20c.0751846.3035358.0040503.6247663-.1922534.8681828-.1963036.2434165-.4951725.3809901-.8077466.3718172z" fill="#95a5a5"/><circle id="Oval" cx="22" cy="5" fill="#fdd7ad" r="5"/><path id="Shape" d="m20 46.6-2 4.46c-.619094 1.49836-2.3165951 2.233798-3.8331432 1.6606996s-2.3034262-2.2473749-1.7768568-3.7806996l1.73-4.29z" fill="#95a5a5"/><path id="Shape" d="m31.48 36.08-4.55 4.2-2.52-2c-.4440397-.3487565-1.0470638-.4165628-1.5574669-.1751273-.510403.2414355-.840489.7506299-.8525331 1.3151273.1461241 1.3282628-.0536754 2.6717424-.58 3.9l-5.83-2.32c.54-1.41.41-1.26.41-7.91h12.2z" fill="#4482c3"/><path id="Shape" d="m28 32.94.2.18h-12.2v-13.12l-2.61.88-1.91-5.06c5.36-2.18 3.41-1.82 12.29-1.82.7890632-.0019768 1.5471356.3070006 2.11.86l5.27 5.21-3.15 3.93z" fill="#f0c419"/><path id="Shape" d="m35 44v5.84c.0275378 1.6347542-1.2115903 3.0135024-2.84 3.16-.822991.0439562-1.6278202-.2526007-2.2255275-.8200443-.5977073-.5674437-.9356455-1.3557925-.9344725-2.1799557l-.000003-6z" fill="#95a5a5"/><path id="Shape" d="m3 54c-.55228475 0-1-.4477153-1-1v-15c0-3.3137085 2.6862915-6 6-6h37.55l4.07-4.66c.2306318-.2863409.5997925-.4230275.9612895-.3559299.3614969.0670975.6570177.3271558.7695321.6771882.1125143.3500324.0238727.7335758-.2308216.9987417l-4.37 5c-.1895698.2157843-.4627728.3396363-.75.34h-38c-2.209139 0-4 1.790861-4 4v15c0 .5522847-.44771525 1-1 1z" fill="#bdc3c7"/><g fill="#464f5d"><path id="Shape" d="m55.5 58h-53c-1.38071187 0-2.5-1.1192881-2.5-2.5s1.11928813-2.5 2.5-2.5h53c1.3807119 0 2.5 1.1192881 2.5 2.5s-1.1192881 2.5-2.5 2.5z"/><path id="Shape" d="m57.76 20.88-6.76 7.85c-.1740622.2031279-.4222523.3280487-.6890957.3468405-.2668435.0187918-.5300917-.0701122-.7309043-.2468405l-1.58-1.43c-.4033899-.3509395-.6494645-.8487889-.6832848-1.3823974-.0338202-.5336086.1474301-1.058542.5032848-1.4576026l5.44-6.11c.6891973-.783297 1.8647358-.9052047 2.7-.28l1.67 1.26c.2166704.1702919.3534608.4224507.3780694.6969317.0246087.274481-.065146.5469508-.2480694.7530683z"/></g></g></svg>