<svg height="512" viewBox="0 0 58 52" width="512" xmlns="http://www.w3.org/2000/svg"><g id="031---Happy-Job" fill="none"><path id="Rectangle-path" d="m1 26.14h56v21.86h-56z" fill="#e57e25"/><path id="Shape" d="m57 47v2c0 1.6568542-1.3431458 3-3 3h-50c-1.65685425 0-3-1.3431458-3-3v-2z" fill="#d25627"/><path id="Shape" d="m41 10c-.5522847 0-1-.44771525-1-1v-5c0-.55228475-.4477153-1-1-1h-20c-.5522847 0-1 .44771525-1 1v5c0 .55228475-.4477153 1-1 1s-1-.44771525-1-1v-5c0-1.65685425 1.3431458-3 3-3h20c1.6568542 0 3 1.34314575 3 3v5c0 .55228475-.4477153 1-1 1z" fill="#a56a43"/><path id="Shape" d="m17 29.74c-5.1266667-.3-10.24-.8033333-15.34-1.51-.95552547-.1349915-1.66448825-.9549966-1.66-1.92v-16.37c0-1.07143241.86856759-1.94 1.94-1.94h54.12c1.0714324 0 1.94.86856759 1.94 1.94v16.37c.0038086.9683172-.7105012 1.7895596-1.67 1.92-5.1.7-10.21 1.2033333-15.33 1.51z" fill="#f29c1f"/><circle id="Oval" cx="29" cy="30" fill="#f3d55b" r="12"/><path id="Shape" d="m35 4h-12c-1.1045695 0-2-.8954305-2-2s.8954305-2 2-2h12c1.1045695 0 2 .8954305 2 2s-.8954305 2-2 2z" fill="#f29c1f"/><g fill="#b19046"><path id="Shape" d="m21.14 33.5c-.2111896-.4672916-.0346812-1.0186013.408637-1.2763444.4433181-.2577431 1.0097539-.1383777 1.311363.2763444 1.2862781 2.167226 3.6198056 3.4958266 6.14 3.4958266s4.8537219-1.3286006 6.14-3.4958266c.1572029-.3478371.4987108-.5758412.8802382-.5876816.3815275-.0118403.7365164.1945486.9149856.5319684.1784693.3374198.1492845.7470071-.0752238 1.0557132-1.6426895 2.7795819-4.6312999 4.4848628-7.86 4.4848628s-6.2173105-1.7052809-7.86-4.4848628z"/><path id="Shape" d="m25 29c-.5522847 0-1-.4477153-1-1v-2c0-.5522847.4477153-1 1-1s1 .4477153 1 1v2c0 .5522847-.4477153 1-1 1z"/><path id="Shape" d="m33 29c-.5522847 0-1-.4477153-1-1v-2c0-.5522847.4477153-1 1-1s1 .4477153 1 1v2c0 .5522847-.4477153 1-1 1z"/></g></g></svg>