<svg height="512" viewBox="0 0 58 58" width="512" xmlns="http://www.w3.org/2000/svg"><g id="032---Decrease-Anxiety" fill="none"><circle id="Oval" cx="23" cy="35" fill="#2980ba" r="23"/><ellipse id="Oval" cx="23" cy="35" fill="#3b97d3" rx="21" ry="23"/><path id="Shape" d="m33 43.45v4c.002079.3842967-.2162518.7357863-.5616711.9042315-.3454192.1684452-.7568091.1240415-1.0583289-.1142315l-2.13-1.72c-.7306656-.5850007-1.7693344-.5850007-2.5 0l-2.5 2c-.7306656.5850007-1.7693344.5850007-2.5 0l-2.5-2c-.7306656-.5850007-1.7693344-.5850007-2.5 0l-2.13 1.72c-.3001041.2371517-.7091964.2823411-1.0538262.1164082s-.5644168-.5139159-.5661738-.8964082v-4c.0029202-.6119201.2777377-1.1908689.75-1.58l3-2.43c.7306656-.5850007 1.7693344-.5850007 2.5 0l2.5 2c.7306656.5850007 1.7693344.5850007 2.5 0l2.5-2c.7306656-.5850007 1.7693344-.5850007 2.5 0l3 2.43c.4695897.3868929.7441252.9615873.75 1.57z" fill="#285680"/><circle id="Oval" cx="49" cy="9" fill="#e64c3c" r="9"/><g fill="#fff"><path id="Shape" d="m49 15c-.5522847 0-1-.4477153-1-1v-10c0-.55228475.4477153-1 1-1s1 .44771525 1 1v10c0 .5522847-.4477153 1-1 1z"/><path id="Shape" d="m47.59 14.41-2.3-2.29c-.3877236-.3900375-.3877236-1.0199625 0-1.41.1877666-.1893127.4433625-.2957983.71-.2957983s.5222334.1064856.71.2957983l2.29 2.29 2.29-2.29c.1877666-.1893127.4433625-.2957983.71-.2957983s.5222334.1064856.71.2957983c.3877236.3900375.3877236 1.0199625 0 1.41l-2.3 2.29c-.7800749.7754472-2.0399251.7754472-2.82 0z"/><circle id="Oval" cx="15.5" cy="29.5" r="4.5"/><circle id="Oval" cx="30.5" cy="29.5" r="4.5"/></g><circle id="Oval" cx="15.5" cy="30.5" fill="#464f5d" r="1.5"/><circle id="Oval" cx="30.5" cy="30.5" fill="#464f5d" r="1.5"/></g></svg>