<svg height="512" viewBox="0 0 59 59" width="512" xmlns="http://www.w3.org/2000/svg"><g id="033---Increase-Focus" fill="none"><path id="Shape" d="m26 53c-11.045695 0-20-8.954305-20-20s8.954305-20 20-20 20 8.954305 20 20c0 5.3043298-2.1071368 10.3914081-5.8578644 14.1421356-3.7507275 3.7507276-8.8378058 5.8578644-14.1421356 5.8578644zm0-38c-9.9411255 0-18 8.0588745-18 18s8.0588745 18 18 18 18-8.0588745 18-18-8.0588745-18-18-18z" fill="#c03a2b"/><circle id="Oval" cx="47" cy="12" fill="#24ae5f" r="12"/><path id="Shape" d="m47 19.67c-.5522847 0-1-.4477153-1-1v-13.34c0-.55228475.4477153-1 1-1s1 .44771525 1 1v13.34c0 .5522847-.4477153 1-1 1z" fill="#fff"/><path id="Shape" d="m51 9.59c-.2672459-.00110942-.5229286-.10914435-.71-.3l-3.29-3.29-3.29 3.29c-.1877666.18931265-.4433625.29579832-.71.29579832s-.5222334-.10648567-.71-.29579832c-.3877236-.39003745-.3877236-1.01996255 0-1.41l3.3-3.29c.7800749-.77544719 2.0399251-.77544719 2.82 0l3.3 3.29c.2884599.28609046.3751619.71826679.219371 1.09348151-.155791.37521471-.5231059.61888111-.929371.61651849z" fill="#fff"/><path id="Shape" d="m1 20c-.55228475 0-1-.4477153-1-1v-7c0-2.76142375 2.23857625-5 5-5h7c.5522847 0 1 .44771525 1 1s-.4477153 1-1 1h-7c-1.65685425 0-3 1.3431458-3 3v7c0 .5522847-.44771525 1-1 1z" fill="#e64c3c"/><path id="Shape" d="m12 59h-7c-2.76142375 0-5-2.2385763-5-5v-7c0-.5522847.44771525-1 1-1s1 .4477153 1 1v7c0 1.6568542 1.34314575 3 3 3h7c.5522847 0 1 .4477153 1 1s-.4477153 1-1 1z" fill="#e64c3c"/><path id="Shape" d="m47 59h-7c-.5522847 0-1-.4477153-1-1s.4477153-1 1-1h7c1.6568542 0 3-1.3431458 3-3v-7c0-.5522847.4477153-1 1-1s1 .4477153 1 1v7c0 2.7614237-2.2385763 5-5 5z" fill="#e64c3c"/><path id="Shape" d="m26 43c-5.5228475 0-10-4.4771525-10-10s4.4771525-10 10-10 10 4.4771525 10 10-4.4771525 10-10 10zm0-18c-4.418278 0-8 3.581722-8 8s3.581722 8 8 8 8-3.581722 8-8-3.581722-8-8-8z" fill="#c03a2b"/><g fill="#e64c3c"><path id="Shape" d="m26 59c-.5522847 0-1-.4477153-1-1v-18c0-.5522847.4477153-1 1-1s1 .4477153 1 1v18c0 .5522847-.4477153 1-1 1z"/><path id="Shape" d="m26 27c-.5522847 0-1-.4477153-1-1v-18c0-.55228475.4477153-1 1-1s1 .44771525 1 1v18c0 .5522847-.4477153 1-1 1z"/><path id="Shape" d="m51 34h-18c-.5522847 0-1-.4477153-1-1s.4477153-1 1-1h18c.5522847 0 1 .4477153 1 1s-.4477153 1-1 1z"/><path id="Shape" d="m19 34h-18c-.55228475 0-1-.4477153-1-1s.44771525-1 1-1h18c.5522847 0 1 .4477153 1 1s-.4477153 1-1 1z"/></g></g></svg>