<svg height="512" viewBox="0 0 58 58" width="512" xmlns="http://www.w3.org/2000/svg"><g id="034---Weigh-On-Shoulders" fill="none" transform="translate(-1)"><path id="Shape" d="m51 33.35c-.5522847 0-1-.4477153-1-1v-6.9c-.0165034-1.9180487-1.5819123-3.4610947-3.5-3.45h-3c-1.9180877-.0110947-3.4834966 1.5319513-3.5 3.45v6.9c0 .5522847-.4477153 1-1 1s-1-.4477153-1-1v-6.9c.0165271-3.022617 2.4773581-5.4610768 5.5-5.45h3c3.0226419-.0110768 5.4834729 2.427383 5.5 5.45v6.9c0 .5522847-.4477153 1-1 1z" fill="#7d6599"/><path id="Shape" d="m32.25 25.32c-1.15 2.64-1.53 5.73-.11 10.61.1804162.4249672.3979238.8332123.65 1.22-.8463827 1.5001874-1.4059253 3.1449037-1.65 4.85-8 8.94-15.84 5.64-17 5.08 4.48-4.92 2.48-11.21-.82-12.39-1.9675824.7059932-3.97023779 1.3101276-6 1.81-.98799665.2145587-1.96876138-.390688-2.22-1.37-.6-1.73.23-2.18 0-3.18-.17-.7-.84-.87-1.37-1.24s.27-1.28.27-1.28-.81-.6-1.1-.85c-.48-.41.88-1.29.63-2.61-.14-.74-1.26-1-1.81-1.43-.86-.63-1.13-1 .06-2.35 1.20010874-1.5514529 2.22939367-3.2278127 3.07-5 .11381312-.1883749.18228146-.4006268.2-.62 0-1-1.45-1.39-1.58-2.35-.1-.72.87-2.13 1.17-3.43.16477338-.81744678.38528841-1.62266078.66-2.41.58148108-1.590531 1.47959415-3.04656278 2.64-4.28 1.82249428-1.66763645 4.1049039-2.74786087 6.55-3.1 7.51-1.52 11.85-1.78 17.92 3 2.82 2.19 4.65 5.24 4.59 11.23-.08 5.02-3.31 6.82-4.75 10.09z" fill="#fdd7ad"/><path id="Shape" d="m45 58h-38c-.75935974-.0009301-1.45269183-.4318177-1.78974193-1.1122774-.33705009-.6804596-.25967163-1.493101.19974193-2.0977226 1.92261234-2.2212293 4.13979782-4.1692572 6.59-5.79.7826113-.5620888 1.503319-1.2056976 2.15-1.92 1.15.56 9 3.86 17-5.08-.5801298 4.0192543.6135196 8.0923662 3.2713039 11.1627307 2.6577842 3.0703645 6.5177908 4.8354111 10.5786961 4.8372693z" fill="#2980ba"/><path id="Shape" d="m14.62 34.23c1.38-.48 4.38-1.23 4.38-2.74 0-.5522847.4477153-1 1-1s1 .4477153 1 1c.08 3.54-5.41 4.36-5.73 4.68-.4910547-.6560266-1.1612948-1.1561021-1.93-1.44z" fill="#f9c795"/><circle id="Oval" cx="45" cy="44" fill="#5d4c72" r="14"/><path id="Shape" d="m48 35.46c-1.8543737-.5727817-3.8358636-.5901632-5.7-.05-.3492422.1446162-.7501811.0799489-1.036246-.1671357-.2860648-.2470847-.4083605-.6343542-.3160789-1.0009167.0922815-.3665625.3833672-.6497639.7523249-.7319476 2.1474397-.680096 4.4525603-.680096 6.6 0 .4646012.1525877.7507005.6187993.676342 1.1021295-.0743585.4833303-.4873607.8419878-.976342.8478705z" fill="#7d6599"/><path id="Shape" d="m41.7 54.49c-.3689577-.0821837-.6600434-.3653851-.7523249-.7319476-.0922816-.3665625.0300141-.753832.3160789-1.0009167.2860649-.2470846.6870038-.3117519 1.036246-.1671357 1.759477.5401535 3.640523.5401535 5.4 0 .5063097-.1127783 1.0147977.1803068 1.171.6749474.1562023.4946405-.0917453 1.0266-.571 1.2250526-2.1474397.680096-4.4525603.680096-6.6 0z" fill="#7d6599"/><g fill="#fff"><path id="Shape" d="m38 49c-.5522847 0-1-.4477153-1-1v-8c0-.5522847.4477153-1 1-1s1 .4477153 1 1v8c0 .5522847-.4477153 1-1 1z"/><path id="Shape" d="m42 49c-.51 0-.24.12-4.66-3.75-.2152504-.189833-.3385622-.4629994-.3385622-.75s.1233118-.560167.3385622-.75l4-3.5c.2651659-.2546943.6487093-.3433359.9987417-.2308216.3500324.1125144.6100907.4080352.6771882.7695321.0670976.361497-.069589.7306577-.3559299.9612895l-3.14 2.75 3.14 2.75c.3117246.2749144.4209003.7139877.2742317 1.1028817-.1466686.3888939-.5185999.6465212-.9342317.6471183z"/><path id="Shape" d="m50 49c-2.7614237 0-5-2.2385763-5-5s2.2385763-5 5-5h2c.5522847 0 1 .4477153 1 1s-.4477153 1-1 1h-2c-1.521512.0160436-2.7900497 1.1686125-2.9514444 2.6816254-.1613947 1.5130128.8354742 2.907235 2.3193658 3.2438682s2.9847952-.4909485 3.4920786-1.9254936h-1.86c-.5522847 0-1-.4477153-1-1s.4477153-1 1-1h2.5c.4410811-.0052212.8621009.1839698 1.151072.5172497.288971.33328.4165961.7768595.348928 1.2127503-.3648442 2.473148-2.5002288 4.2967665-5 4.27z"/></g></g></svg>