<svg height="512" viewBox="0 0 58 59" width="512" xmlns="http://www.w3.org/2000/svg"><g id="035---Great--Self-esteem" fill="none"><path id="Shape" d="m37.57 2.92c-9.57 2.8-22.52 9.48-27.18 25.41-.92292693-2.3333817-1.39460663-4.8207286-1.39-7.33-.00314334-6.8591569 3.5089472-13.24144743 9.3050084-16.90937836 5.7960612-3.66793094 13.0674565-4.10977139 19.2649916-1.17062164z" fill="#b0d3f0"/><path id="Shape" d="m49 21c.0020002 9.6087944-6.8295055 17.8610112-16.2696846 19.6532027-9.4401792 1.7921915-18.8206924-3.3822191-22.3403154-12.3232027 4.66-15.93 17.61-22.61 27.18-25.41 6.9834261 3.31185258 11.4335412 10.3510547 11.43 18.08z" fill="#90bae1"/><path id="Shape" d="m9.4 25h-5.06l-.26-6h5.02z" fill="#7f8c8d"/><path id="Shape" d="m48.6 25h5.06l.26-6h-5.02z" fill="#7f8c8d"/><path id="Shape" d="m55.5 59h-53c-1.38071187 0-2.5-1.1192881-2.5-2.5s1.11928813-2.5 2.5-2.5h53c1.3807119 0 2.5 1.1192881 2.5 2.5s-1.1192881 2.5-2.5 2.5z" fill="#7d6599"/><path id="Shape" d="m29 49c-8.1794306.0010822-15.9503757-3.5744645-21.27078617-9.7870581-5.3204105-6.2125935-7.65826198-14.4409939-6.39921383-22.5229419.11075232-.7145312.59428955-1.3156996 1.26846787-1.5770508.67417833-.2613513 1.43657403-.14318 2.00000002.31.56342599.4531799.84228445 1.1725196.73153211 1.8870508-1.43999522 9.3442942 2.74025205 18.6633366 10.676709 23.8016313 7.9364569 5.1382946 18.1501251 5.1382946 26.086582 0 7.936457-5.1382947 12.1167042-14.4573371 10.676709-23.8016313-.1107523-.7145312.1681061-1.4338709.7315321-1.8870508.563426-.45318 1.3258217-.5713513 2-.31.6741784.2613512 1.1577156.8625196 1.2684679 1.5770508 1.2617993 8.0992382-1.088798 16.3446436-6.4316875 22.5610195-5.3428894 6.2163759-13.1414305 9.7793486-21.3383125 9.7489805z" fill="#7d6599"/><path id="Rectangle-path" d="m26 48.84h6v5.16h-6z" fill="#5d4c72"/><path id="Shape" d="m29.74 14.32c-.1895245.2085142-.458224.3273931-.74.3273931s-.5504755-.1188789-.74-.3273931c-1.2400324-1.4767028-3.0717137-2.326603-5-2.32-3.59 0-6.26 2.11-6.26 6.34s2.67 5.91 4.44 7.6c1.42 1.35 5.4 4.59 6.94 5.84.3634448.2871976.8765552.2871976 1.24 0 1.54-1.25 5.52-4.49 6.94-5.84 1.77-1.69 4.44-3.38 4.44-7.6s-2.67-6.34-6.22-6.34c-1.9422497-.0185392-3.7910156.8324801-5.04 2.32z" fill="#ff5364"/><path id="Shape" d="m53.31 1.93c-.0778781.08997269-.1910039.14167184-.31.14167184s-.2321219-.05169915-.31-.14167184c-1.41-1.59-4.69-1.23-4.69 1.61 0 1.69 1.11 2.37 1.85 3.05.58.53 2.19 1.79 2.85 2.31.1753597.14040016.4246403.14040016.6 0 .66-.52 2.27-1.78 2.85-2.31.74-.68 1.85-1.36 1.85-3 0-2.89-3.28-3.25-4.69-1.66z" fill="#ff5364"/><path id="Shape" d="m5.31 1.93c-.07787809.08997269-.19100386.14167184-.31.14167184s-.23212191-.05169915-.31-.14167184c-1.41-1.59-4.69-1.23-4.69 1.61 0 1.69 1.11 2.37 1.85 3.05.58.53 2.15 1.79 2.85 2.31.17535974.14040016.42464026.14040016.6 0 .7-.52 2.27-1.78 2.85-2.31.74-.68 1.85-1.36 1.85-3 0-2.89-3.28-3.25-4.69-1.66z" fill="#ff5364"/><g fill="#fff"><path id="Shape" d="m24 9c-.4503352-.00013238-.8450264-.30126158-.96411-.73556661s.0668217-.89463007.45411-1.12443339l10.42-6.25c.4672916-.21118959 1.0186013-.03468119 1.2763444.40863697.2577431.44331817.1383777 1.00975392-.2763444 1.31136303-11.33 6.81-10.52 6.39-10.91 6.39z"/><path id="Shape" d="m9.09 23.94c-.44740943.0014432-.84133283-.2944782-.96455332-.7245874-.1232205-.4301093.054251-.8897276.43455332-1.1254126l3.91-2.42c.469442-.2927109 1.087289-.149442 1.38.32.2927109.469442.149442 1.0872891-.32 1.38-4.3 2.63-4.05 2.57-4.44 2.57z"/><path id="Shape" d="m39.09 9.42c-.4474094.00144322-.8413328-.29447815-.9645533-.72458743-.1232205-.43010927.054251-.88972756.4345533-1.12541257l3.44-2.13c.469442-.29271089 1.0872891-.14944201 1.38.32000002.2927109.46944202.149442 1.08728905-.32 1.37999998-3.7 2.29-3.58 2.28-3.97 2.28z"/><path id="Shape" d="m31 9.61c-.4428695-.00114316-.832237-.29344649-.9569502-.71839506-.1247131-.42494857.0449371-.88131148.4169502-1.12160494l7.85-5c.4618613-.26346242 1.0491348-.1194165 1.3366675.32785661.2875327.44727312.1747642 1.04134603-.2566675 1.35214339-8.53 5.44-7.98 5.16-8.39 5.16z"/><path id="Shape" d="m9.29 18.62c-.45352767-.0013803-.84934018-.3078023-.96429848-.7465207s.07972548-.8998694.47429848-1.1234793l4.71-2.62c.3108211-.1786328.693331-.1778753 1.0034421.0019873.3101111.1798625.50071.5115047.5.87s-.192621.6893799-.5034421.8680127c-5.04 2.8-4.85 2.75-5.22 2.75z"/></g><path id="Shape" d="m29 42c-11.5979797 0-21-9.4020203-21-21 0-11.59797975 9.4020203-21 21-21s21 9.40202025 21 21c0 11.5979797-9.4020203 21-21 21zm0-40c-10.4934102 0-19 8.5065898-19 19s8.5065898 19 19 19 19-8.5065898 19-19-8.5065898-19-19-19z" fill="#95a5a5"/></g></svg>