<svg height="512" viewBox="0 0 60 59" width="512" xmlns="http://www.w3.org/2000/svg"><g id="036---Nature-Walk" fill="none"><path id="Shape" d="m44 59c-.5522847 0-1-.4477153-1-1v-9c0-.5522847.4477153-1 1-1s1 .4477153 1 1v9c0 .5522847-.4477153 1-1 1z" fill="#a56a43"/><path id="Shape" d="m53 59c-.5522847 0-1-.4477153-1-1v-6c0-.5522847.4477153-1 1-1s1 .4477153 1 1v6c0 .5522847-.4477153 1-1 1z" fill="#805333"/><path id="Shape" d="m52 30h3c2.209139 0 4 1.790861 4 4v14c0 2.209139-1.790861 4-4 4h-4c-1.8228823-.0013597-3.4142798-1.2350012-3.87-3z" fill="#24ae5f"/><path id="Shape" d="m3 59h-2c-.55228475 0-1-.4477153-1-1s.44771525-1 1-1h2c.55228475 0 1 .4477153 1 1s-.44771525 1-1 1z" fill="#4fba6f"/><path id="Shape" d="m59 59h-52c-.55228475 0-1-.4477153-1-1s.44771525-1 1-1h52c.5522847 0 1 .4477153 1 1s-.4477153 1-1 1z" fill="#4fba6f"/><path id="Shape" d="m59 9c0 2.209139-1.790861 4-4 4h-10c-2.209139 0-4-1.790861-4-4s1.790861-4 4-4c0-2.76142375 2.2385763-5 5-5s5 2.23857625 5 5c2.209139 0 4 1.790861 4 4z" fill="#bdc3c7"/><path id="Shape" d="m58.87 8c-.4557202 1.76499878-2.0471177 2.9986403-3.87 3h-10c-1.8228823-.0013597-3.4142798-1.23500122-3.87-3 .4557202-1.76499878 2.0471177-2.9986403 3.87-3 0-2.76142375 2.2385763-5 5-5s5 2.23857625 5 5c1.8228823.0013597 3.4142798 1.23500122 3.87 3z" fill="#ecf0f1"/><path id="Shape" d="m19 13c0 2.209139-1.790861 4-4 4h-10c-2.209139 0-4-1.790861-4-4s1.790861-4 4-4c0-2.76142375 2.23857625-5 5-5 2.7614237 0 5 2.23857625 5 5 2.209139 0 4 1.790861 4 4z" fill="#bdc3c7"/><path id="Shape" d="m18.87 12c-.4557202 1.7649988-2.0471177 2.9986403-3.87 3h-10c-1.82288226-.0013597-3.41427982-1.2350012-3.87-3 .45572018-1.7649988 2.04711774-2.9986403 3.87-3 0-2.76142375 2.23857625-5 5-5 2.7614237 0 5 2.23857625 5 5 1.8228823.0013597 3.4142798 1.2350012 3.87 3z" fill="#ecf0f1"/><rect id="Rectangle-path" fill="#4fba6f" height="28" rx="5" width="16" x="36" y="21"/><path id="Shape" d="m47 46h-4c-.5522847 0-1-.4477153-1-1s.4477153-1 1-1h4v-5c0-.5522847.4477153-1 1-1s1 .4477153 1 1v5c0 1.1045695-.8954305 2-2 2z" fill="#7ed09e"/><path id="Shape" d="m27.47 57.92c-1.0572158.302857-2.1606073-.3046783-2.47-1.36-2.68-7.17-1.83-5.68-4.24-8.48-.2721225-.3182117-.7136768-.4332037-1.1064462-.2881468-.3927695.1450569-.653586.5194472-.6535538.9381468-.0012492.831223-.218334 1.6478752-.63 2.37l-3.37 5.9c-.5522847.9609755-1.7790245 1.2922847-2.74.74s-1.2922847-1.7790245-.74-2.74l2.85-5c.76-1.36.63-2 .63-6l7-2v2.11l3.32 3.22c1 1 .92 1.14 3.52 8.11.1481436.5105572.0869241 1.0590873-.1701354 1.5244212-.2570594.4653338-.6888049.8091783-1.1998646.9555788z" fill="#3b97d3"/><circle id="Oval" cx="19" cy="26" fill="#fdd7ad" r="3"/><circle id="Oval" cx="27" cy="4" fill="#f3d55b" r="4"/><path id="Shape" d="m48 36c-.5522847 0-1-.4477153-1-1v-2c0-.5522847.4477153-1 1-1s1 .4477153 1 1v2c0 .5522847-.4477153 1-1 1z" fill="#7ed09e"/><path id="Shape" d="m32 40c-.000475.6146819-.2835778 1.195004-.7677255 1.5737324-.4841476.3787284-1.1155578.5137915-1.7122745.3662676-6.62-2.15-5.63-1.6-7.52-3.43v5.49h-7v-6.16c-2.18 1.51-1.54.8-4.22 5-.5485867.828952-1.62272306 1.129196-2.52163318.7048502-.89891012-.4243459-1.34974108-1.4444767-1.05836682-2.3948502l2.46-4c.58-1 1.12-1.25 4.31-3.45.6711355-.4597547 1.4665003-.7039456 2.28-.7h4.14c1.031948-.0011645 2.0244178.39654 2.77 1.11 3.06 3 1.85 2.22 7.34 4 .8665223.2234756 1.4791351.9953677 1.5 1.89z" fill="#b49aca"/></g></svg>