<svg height="512" viewBox="0 0 58 59" width="512" xmlns="http://www.w3.org/2000/svg"><g id="037---Special-Tea" fill="none"><path id="Shape" d="m57.42 22.91c-1.4530505-3.6122558-4.97677-5.9600779-8.87-5.91h-27.55c-3.3033061.0475291-6.3397409 1.8238435-8 4.68-.5046971.882236-1.4695296 1.398077-2.4834911 1.3277813-1.01396155-.0702956-1.8983818-.7143412-2.2765089-1.6577813-.30701493-.8109448-1.08288642-1.3480866-1.95-1.35h-4.29c-1.1045695 0-2 .8954305-2 2s.8954305 2 2 2c.55228475 0 1 .4477153 1 1 0 4.9705627 4.02943725 9 9 9h38c2.6845668.0137219 5.1970433-1.319987 6.6899048-3.5512314 1.4928615-2.2312445 1.7670578-5.0625222.7300952-7.5387686z" fill="#c03a2b"/><path id="Shape" d="m4.5 42.5c.00000003-1.9329966 1.5670034-3.4999999 3.5-3.4999999s3.5 1.5670033 3.5 3.4999999z" fill="#7f8284"/><path id="Shape" d="m11.5 42.5c0-1.9329966 1.5670034-3.5 3.5-3.5s3.5 1.5670034 3.5 3.5z" fill="#56595e"/><path id="Shape" d="m18.5 42.5c0-1.9329966 1.5670034-3.5 3.5-3.5s3.5 1.5670034 3.5 3.5z" fill="#7f8284"/><path id="Shape" d="m25.5 42.5c0-1.9329966 1.5670034-3.5 3.5-3.5s3.5 1.5670034 3.5 3.5z" fill="#56595e"/><path id="Shape" d="m32.5 42.5c0-1.9329966 1.5670034-3.5 3.5-3.5s3.5 1.5670034 3.5 3.5z" fill="#7f8284"/><path id="Shape" d="m39.5 42.5c0-1.9329966 1.5670034-3.5 3.5-3.5s3.5 1.5670034 3.5 3.5z" fill="#56595e"/><path id="Shape" d="m46.5 42.5c0-1.9329966 1.5670034-3.5 3.5-3.5s3.5 1.5670034 3.5 3.5z" fill="#7f8284"/><path id="Shape" d="m49 18c-.299568.004901-.5855503-.1247748-.7792535-.3533445-.1937031-.2285697-.274716-.5319483-.2207465-.8266555l1.22-6.53c.3831158-2.04326922-.1617776-4.15111662-1.487123-5.75273658-1.3253453-1.60161997-3.2940092-2.53129301-5.372877-2.53726342h-14.72c-2.0823692.00003243-4.0566177.92717281-5.3864831 2.52958335-1.3298655 1.60241054-1.8772678 3.71371274-1.4935169 5.76041665l1.24 6.53c.0973173.5407885-.2599262 1.0587916-.8 1.16-.5407885.0973173-1.0587916-.2599262-1.16-.8l-1.23-6.52c-.493372-2.62899266.2082378-5.34121843 1.9145686-7.40118288 1.7063308-2.05996446 4.2405488-3.25418542 6.9154314-3.25881712h14.72c2.6783828-.00131352 5.2181892 1.19037143 6.9290425 3.25112798 1.7108532 2.06075655 2.4149707 4.7764421 1.9209575 7.40887202l-1.21 6.52c-.0879673.4810925-.5109963.8279763-1 .82z" fill="#7f8284"/><path id="Shape" d="m4 46h8v11c0 1.1045695-.8954305 2-2 2h-4c-1.1045695 0-2-.8954305-2-2z" fill="#a56a43"/><path id="Shape" d="m25 46h8v11c0 1.1045695-.8954305 2-2 2h-4c-1.1045695 0-2-.8954305-2-2z" fill="#a56a43"/><path id="Shape" d="m46 46h8v11c0 1.1045695-.8954305 2-2 2h-4c-1.1045695 0-2-.8954305-2-2z" fill="#a56a43"/><rect id="Rectangle-path" fill="#cb8252" height="5" rx="2" width="58" y="42"/><path id="Shape" d="m58 26h-54.94c-.04021405-.3318124-.06025089-.6657597-.06-1 0-.5522847-.44771525-1-1-1-1.1045695 0-2-.8954305-2-2s.8954305-2 2-2h4.29c.86345141.006044 1.63429403.5424551 1.94 1.35.3781271.9434401 1.26254735 1.5874857 2.2765089 1.6577813 1.0139615.0702957 1.978794-.4455453 2.4834911-1.3277813 1.6620854-2.8591854 4.7031088-4.6359631 8.01-4.68h27.55c5.0921929-.1174459 9.3190543 3.9081363 9.45 9z" fill="#e64c3c"/><path id="Shape" d="m42 17h-14c-1.1045695 0-2-.8954305-2-2s.8954305-2 2-2h14c1.1045695 0 2 .8954305 2 2s-.8954305 2-2 2z" fill="#95a5a5"/><circle id="Oval" cx="35" cy="11" fill="#bdc3c7" r="2"/><g fill="#fb7b76"><path id="Shape" d="m22 23h-2c-.5522847 0-1-.4477153-1-1s.4477153-1 1-1h2c.5522847 0 1 .4477153 1 1s-.4477153 1-1 1z"/><path id="Shape" d="m29 23h-2c-.5522847 0-1-.4477153-1-1s.4477153-1 1-1h2c.5522847 0 1 .4477153 1 1s-.4477153 1-1 1z"/><path id="Shape" d="m36 23h-2c-.5522847 0-1-.4477153-1-1s.4477153-1 1-1h2c.5522847 0 1 .4477153 1 1s-.4477153 1-1 1z"/><path id="Shape" d="m43 23h-2c-.5522847 0-1-.4477153-1-1s.4477153-1 1-1h2c.5522847 0 1 .4477153 1 1s-.4477153 1-1 1z"/><path id="Shape" d="m50 23h-2c-.5522847 0-1-.4477153-1-1s.4477153-1 1-1h2c.5522847 0 1 .4477153 1 1s-.4477153 1-1 1z"/></g></g></svg>