<svg height="512" viewBox="0 0 59 60" width="512" xmlns="http://www.w3.org/2000/svg"><g id="038---Natural-Oil" fill="none"><path id="Shape" d="m9 1h10c1.6568542 0 3 1.34314575 3 3v13h-16v-13c0-1.65685425 1.34314575-3 3-3z" fill="#9fc9d3"/><path id="Shape" d="m18 6h-8c-.55228475 0-1-.44771525-1-1s.44771525-1 1-1h8c.5522847 0 1 .44771525 1 1s-.4477153 1-1 1z" fill="#fff"/><rect id="Rectangle-path" fill="#a56a43" height="40" rx="5" width="28" y="19"/><rect id="Rectangle-path" fill="#cb8252" height="40" rx="5" width="22" x="3" y="19"/><path id="Shape" d="m6 42v-10c0-4.418278 3.581722-8 8-8s8 3.581722 8 8v10c0 4.418278-3.581722 8-8 8s-8-3.581722-8-8z" fill="#f0c419"/><path id="Shape" d="m23 19h-18c-1.1045695 0-2-.8954305-2-2s.8954305-2 2-2h18c1.1045695 0 2 .8954305 2 2s-.8954305 2-2 2z" fill="#84b5cb"/><path id="Shape" d="m18 38.56c.1135139 2.3278027-1.6730127 4.3108471-4 4.44-2.3269873-.1291529-4.11351387-2.1121973-4-4.44 0-1.74 2-4.65 3.2-6.17.1888544-.2518058.4852427-.4.8-.4s.6111456.1481942.8.4c1.2 1.52 3.2 4.43 3.2 6.17z" fill="#e57e25"/><path id="Shape" d="m16 55h-9c-.55228475 0-1-.4477153-1-1s.44771525-1 1-1h9c.5522847 0 1 .4477153 1 1s-.4477153 1-1 1z" fill="#fff"/><path id="Shape" d="m21 55h-1c-.5522847 0-1-.4477153-1-1s.4477153-1 1-1h1c.5522847 0 1 .4477153 1 1s-.4477153 1-1 1z" fill="#fff"/><path id="Shape" d="m38 53c-6-6-6.1-16.06-6-19.11 0-.5522847.4477153-1 1-1 3-.14 13.06-.07 19 6s6.1 16.11 6 19.11c0 .5522847-.4477153 1-1 1-3 .1-13 0-19-6z" fill="#4fba6f"/><path id="Shape" d="m52 54c-.3290825-.0028029-.6357191-.1673396-.82-.44-3.7184409-5.4239214-8.3949619-10.1241638-13.8-13.87-.4488148-.3183826-.556067-.9395515-.24-1.39.1530741-.2184476.3870784-.3666857.6499848-.4117554s.5329231.0167649.7500152.1717554c5.6137837 3.887227 10.4701747 8.7673408 14.33 14.4.2004179.3120454.2116826.709381.0292656 1.0322799-.1824169.322899-.5285539.5183259-.8992656.5077201z" fill="#7ed09e"/><path id="Shape" d="m52 21.12c-6 6-16 6.09-19 5.95-.5522847 0-1-.4477153-1-1-.1-3.01 0-13.07 6-19.07s16-6.1 19-6c.5522847 0 1 .44771525 1 1 .1 3.05 0 13.1-6 19.12z" fill="#4fba6f"/><path id="Shape" d="m38 22.12c-.3824923-.001757-.7304753-.221544-.8964082-.5661738s-.1207435-.7537221.1164082-1.0538262c4.1665824-5.2978366 8.9315327-10.0963429 14.2-14.3.2773561-.23683359.6616534-.30388673 1.0028256-.17497547.3411721.12891126.5851056.43334026.6365455.79440879.0514398.36106853-.0977728.72150735-.3893711.94056668-5.1651304 4.1167156-9.8392264 8.8142994-13.93 14-.1835732.2206361-.4531002.3517573-.74.36z" fill="#7ed09e"/></g></svg>