<svg height="512" viewBox="0 0 60 59" width="512" xmlns="http://www.w3.org/2000/svg"><g id="039---Balance" fill="none"><path id="Shape" d="m17 38v4h-4.81c-.7145312.0339403-1.3928922-.3158955-1.7795509-.9177276-.3866587-.601832-.4228725-1.3642277-.095-2s.9700197-1.0483322 1.6845509-1.0822724z" fill="#fdd7ad"/><path id="Shape" d="m50 39.79c.0284887.5908919-.192387 1.1666036-.6087903 1.5868096s-.9900833.6463063-1.5812097.6231904h-4.81v-4.000031l5 .000031c1.0274997-.0056782 1.8921266.7681628 2 1.79z" fill="#fdd7ad"/><path id="Shape" d="m18.06 58c-1.3192436-.033897-2.4861039-.8645434-2.95-2.1-.3362437-1.1615635.0916565-2.4092725 1.07-3.12.22-.17.8-.66 6.91-5.75.5747343-.4280754.9123802-1.1033673.91-1.82v-7.21l-3.36 3.36c-.4075928.4099455-.9619109.6403114-1.54.64h-4.1v-4c1.08 0 1.41.07 1.82-.34l4.81-5.29c.8779728-.8775802 2.0686366-1.3703927 3.31-1.37h10.12c1.2439609.0013294 2.4371043.4936807 3.32 1.37l4.8 5.29c.43.42.82.34 1.82.34v4h-3.24c-.6163918.0007125-1.2086009-.2397603-1.65-.67l-4.11-4v7.87c.003928.7095896.3409035 1.3761345.91 1.8 6.11 5.09 6.69 5.58 6.91 5.75.9783435.7107275 1.4062437 1.9584365 1.07 3.12-.4706024 1.2521853-1.6623714 2.0864235-3 2.1z" fill="#7d6599"/><circle id="Oval" cx="30" cy="22" fill="#fdd7ad" r="5"/><path id="Shape" d="m32 54v4h-6c-.8063114-.0033854-1.5317303-.4906258-1.8398346-1.2357575s-.138627-1.6024026.4298346-2.1742425c.3733503-.3755878.8804232-.5877672 1.41-.59z" fill="#fdd7ad"/><path id="Shape" d="m57 17h-54c-1.1045695 0-2-.8954305-2-2s.8954305-2 2-2h54c1.1045695 0 2 .8954305 2 2s-.8954305 2-2 2z" fill="#cf976a"/><circle id="Oval" cx="9" cy="9" fill="#7f8284" r="4"/><circle id="Oval" cx="48.5" cy="6.5" fill="#7f8284" r="6.5"/><path id="Shape" d="m51 7.5c-.5522847 0-1-.44771525-1-1 0-.82842712-.6715729-1.5-1.5-1.5-.5522847 0-1-.44771525-1-1s.4477153-1 1-1c3.4 0 4.5 4.5 2.5 4.5z" fill="#a5a5a4"/><path id="Shape" d="m2 59h-1c-.55228475 0-1-.4477153-1-1s.44771525-1 1-1h1c.55228475 0 1 .4477153 1 1s-.44771525 1-1 1z" fill="#3d324c"/><path id="Shape" d="m59 59h-53c-.55228475 0-1-.4477153-1-1s.44771525-1 1-1h53c.5522847 0 1 .4477153 1 1s-.4477153 1-1 1z" fill="#3d324c"/><g fill="#5d4c72"><path id="Shape" d="m35 47c-.5522847 0-1-.4477153-1-1v-10c0-.5522847.4477153-1 1-1s1 .4477153 1 1v10c0 .5522847-.4477153 1-1 1z"/><path id="Shape" d="m25 47c-.5522847 0-1-.4477153-1-1v-10c0-.5522847.4477153-1 1-1s1 .4477153 1 1v10c0 .5522847-.4477153 1-1 1z"/><path id="Shape" d="m37 54h-10c-.5522847 0-1-.4477153-1-1s.4477153-1 1-1h10c.5522847 0 1 .4477153 1 1s-.4477153 1-1 1z"/></g></g></svg>