<svg height="512" viewBox="0 0 50 58" width="512" xmlns="http://www.w3.org/2000/svg"><g id="040---Incense" fill="none"><g fill="#bdc3c7"><path id="Shape" d="m31.29 19.71c-.4044441-.0016958-.7680455-.2468472-.9212679-.6211476s-.0658935-.8040433.2212679-1.0888524l7.41-7.41c.3967603-.3397768.9881942-.3169323 1.3575632.0524368.3693691.369369.3922136.9608029.0524368 1.3575632l-7.41 7.41c-.1870714.1908556-.4427541.2988906-.71.3z"/><path id="Shape" d="m18.29 20c-.4044441-.0016958-.7680455-.2468472-.9212679-.6211476s-.0658935-.8040433.2212679-1.0888524l9.41-9.7c.3967603-.3397768.9881942-.31693227 1.3575632.05243678.3693691.36936905.3922136.96080294.0524368 1.35756322l-9.41 9.71c-.1887188.1871865-.444197.2915368-.71.29z"/><path id="Shape" d="m18.71 19.71c-.2672459-.0011094-.5229286-.1091444-.71-.3l-6.3-6.29c-.3921221-.3921222-.3921221-1.0278778 0-1.42.3921222-.3921221 1.0278778-.3921221 1.42 0l6.29 6.3c.2871614.2848091.3744903.714552.2212679 1.0888524s-.5168238.6194518-.9212679.6211476z"/></g><path id="Shape" d="m34 26-9 2-9-2c-4.418278 0-8-3.581722-8-8 0-.5522847.44771525-1 1-1h32c.5522847 0 1 .4477153 1 1 0 4.418278-3.581722 8-8 8z" fill="#e57e25"/><rect id="Rectangle-path" fill="#c03a2b" height="32" rx="7" width="44" x="3" y="26"/><path id="Shape" d="m38.64 26h-27.28c-3.51 0-6.36 3.13-6.36 7v18c0 3.87 2.85 7 6.36 7h27.28c3.51 0 6.36-3.13 6.36-7v-18c0-3.87-2.85-7-6.36-7z" fill="#e64c3c"/><path id="Shape" d="m43 43c-.5522847 0-1-.4477153-1-1v-9c0-1.1045695-.8954305-2-2-2h-4.79c-.5522847 0-1-.4477153-1-1s.4477153-1 1-1h4.79c2.209139 0 4 1.790861 4 4v9c0 .5522847-.4477153 1-1 1zm-36 0c-.55228475 0-1-.4477153-1-1v-9c0-2.209139 1.790861-4 4-4h4.79c.5522847 0 1 .4477153 1 1s-.4477153 1-1 1h-4.79c-1.1045695 0-2 .8954305-2 2v9c0 .5522847-.44771525 1-1 1z" fill="#fff"/><path id="Shape" d="m38 42v11c0 .5522847-.4477153 1-1 1h-24c-.5522847 0-1-.4477153-1-1v-11c0-5.5228475 4.4771525-10 10-10h6c5.5228475 0 10 4.4771525 10 10z" fill="#802f34"/><path id="Shape" d="m20 47h10c1.6568542 0 3 1.3431458 3 3v4h-16v-4c0-1.6568542 1.3431458-3 3-3z" fill="#f5efca"/><path id="Shape" d="m29 41.89c0 2.82-1.79 5.11-4 5.11s-4-2.29-4-5.11c0-2.08 2.17-4.48 3.31-5.6.3862983-.3682542.9937017-.3682542 1.38 0 1.14 1.12 3.31 3.52 3.31 5.6z" fill="#f3d55b"/><path id="Shape" d="m27 44.21c0 1.54-.9 2.79-2 2.79s-2-1.25-2-2.79c.2052814-1.170712.7883309-2.2419777 1.66-3.05.0854725-.0985815.2095245-.1552119.34-.1552119s.2545275.0566304.34.1552119c.8716691.8080223 1.4547186 1.879288 1.66 3.05z" fill="#f29c1f"/><path id="Shape" d="m39 13c-.8330933.0029737-1.5807745-.5107848-1.876706-1.2895517-.2959314-.778767-.0781233-1.6594114.546706-2.2104483l8.81-8.83c.7101255-.75407864 1.8626022-.88119004 2.72-.3.4598709.34704977.7477437.87555593.78988 1.45014214.0421363.5745862-.1655572 1.13943388-.56988 1.54985786l-9 9c-.3691075.3927593-.8811136.619917-1.42.63z" fill="#7f6e5d"/><path id="Shape" d="m26.5 13c-.8330933.0029737-1.5807745-.5107848-1.876706-1.2895517-.2959314-.778767-.0781233-1.6594114.546706-2.2104483l8.83-8.83c.7101255-.75407864 1.8626022-.88119004 2.72-.3.4598709.34704977.7477437.87555593.78988 1.45014214.0421363.5745862-.1655572 1.13943388-.56988 1.54985786l-9 9c-.3739094.3977177-.8941377.6253176-1.44.63z" fill="#7f6e5d"/><path id="Shape" d="m11 13c.8330933.0029737 1.5807745-.5107848 1.876706-1.2895517.2959314-.778767.0781233-1.6594114-.546706-2.2104483l-8.81-8.83c-.71012549-.75407864-1.86260223-.88119004-2.72-.3-.45987089.34704977-.74774366.87555593-.78987998 1.45014214-.04213632.5745862.16555717 1.13943388.56987998 1.54985786l9 9c.36910745.3927593.8811136.619917 1.42.63z" fill="#7f6e5d"/></g></svg>