<svg height='100px' width='100px'  fill="#E60000" xmlns="http://www.w3.org/2000/svg" data-name="Layer 1" viewBox="0 0 100 100" x="0px" y="0px"><title>statelove_112917</title><path d="M61,43.52a5.94,5.94,0,0,0-6.29-1.05,7.51,7.51,0,0,0-2.06,1.44A26.54,26.54,0,0,0,50,47a28.65,28.65,0,0,0-2.68-3.06,7.51,7.51,0,0,0-2.06-1.44A5.94,5.94,0,0,0,39,43.52a5,5,0,0,0-1.33,1.82,5.26,5.26,0,0,0,.15,4.05,12.05,12.05,0,0,0,2,3,115.66,115.66,0,0,0,9.47,10.25l.68.62.68-.62a115.76,115.76,0,0,0,9.47-10.25,12.08,12.08,0,0,0,2-3,5.26,5.26,0,0,0,.15-4.05A5,5,0,0,0,61,43.52Zm-.66,5.09a10.21,10.21,0,0,1-1.71,2.53A123.42,123.42,0,0,1,50,60.58a123.29,123.29,0,0,1-8.62-9.44,10.22,10.22,0,0,1-1.72-2.53,3.33,3.33,0,0,1-.14-2.51A3,3,0,0,1,40.33,45,4.1,4.1,0,0,1,43,44a3.51,3.51,0,0,1,1.44.3A5.64,5.64,0,0,1,46,45.37a23.86,23.86,0,0,1,3.19,3.88L50,50.78l.87-1.53A23.86,23.86,0,0,1,54,45.37a5.63,5.63,0,0,1,1.51-1.08,4,4,0,0,1,4.13.72,3,3,0,0,1,.81,1.09A3.33,3.33,0,0,1,60.34,48.62Z"></path><path d="M73.8,57.58l-1.5-5.75a1,1,0,0,0-.33-.52l-2.14-1.78V46a1,1,0,0,0-.41-.8l-3.1-2.29.34-17.22a1,1,0,0,0-.48-.87L62,22.21l-3.75-3.75a1,1,0,0,0-1.27-.12l-2.79,1.89L52,21.53,50.93,18.8a1,1,0,0,0-.93-.64H47a1,1,0,0,0-.78.38l-3.18,4-2,2.65-3.5,4.5a1,1,0,0,0-.21.66l.14,3L35.2,35.22a1,1,0,0,0-.37.78v3.59l-1,3.3-2.69,2.92-1.57,1.65-2.88,1.68a1,1,0,0,0-.5.91L27.5,78a1,1,0,0,0,0,.23L29,83.45a1,1,0,0,0,.75.7l3.17.67.21,0a1,1,0,0,0,.76-.35l5-5.83a1,1,0,0,0,.14-.2L40.79,75h3.55a1,1,0,0,0,.74-.33l1.26-1.4,3.82-.61a1,1,0,0,0,.62-.36L53.39,69,56.7,66.2H61a1,1,0,0,0,.71-.3l1.59-1.62,6-.79a1,1,0,0,0,.66-.37l3.67-4.67A1,1,0,0,0,73.8,57.58Zm-5.17,4-5.93.78a1,1,0,0,0-.58.29L60.58,64.2H56.33a1,1,0,0,0-.65.24L52,67.57l-.13.14-2.42,3-3.79.61a1,1,0,0,0-.58.32L43.89,73H40.17a1,1,0,0,0-.89.55l-1.95,3.89-4.53,5.29-2-.42-1.3-4.48-1.3-27.28,2.48-1.44a1,1,0,0,0,.22-.17l4.53-4.85a1,1,0,0,0,.22-.38L36.79,40a1,1,0,0,0,0-.3V36.48l2.3-1.87a1,1,0,0,0,.37-.82l-.15-3.13,3.28-4.22,2-2.65,2.87-3.62h1.83l1.25,3.2a1,1,0,0,0,1.45.49l3.21-1.94,2.15-1.45,3.25,3.25a1,1,0,0,0,.18.14l3.85,2.37-.34,17.17a1,1,0,0,0,.41.82l3.11,2.29V50a1,1,0,0,0,.36.77l2.25,1.88,1.29,5Z"></path></svg>