<svg height="512" viewBox="0 0 60 59" width="512" xmlns="http://www.w3.org/2000/svg"><g id="011---Meditation" fill="none"><circle id="Oval" cx="30" cy="16" fill="#fdd7ad" r="6"/><path id="Shape" d="m47.9 55.39c-.4917149 1.5223722-1.8907225 2.5686215-3.49 2.61h-11.41v-5h-8.5c-1.3807119 0-2.5 1.1192881-2.5 2.5s1.1192881 2.5 2.5 2.5h-8.91c-1.5992775-.0413785-2.9982851-1.0876278-3.49-2.61-.3380178-1.3432171.1625262-2.7581407 1.27-3.59.27-.2 1.06-.92 8.57-6.82.6702453-.5202076 1.0616918-1.3215651 1.06-2.17v-8.81l-4.21 4.21c-.5060548.5071853-1.1935322.7915346-1.91.79h-3.88v-5h.44c.3743898.0111645.7365898-.1337155 1-.4l6-6c1.0211592-1.0155063 2.3998894-1.5899772 3.84-1.6h11.44c1.4588759-.0004842 2.8581769.5786609 3.89 1.61l6 6c.2634102.2662845.6256102.4111645 1 .4h.39v5h-3.26c-.7468793.0118176-1.4673064-.2763532-2-.8l-4.74-4.75v9.35c-.0079231.8554486.3841593 1.6655056 1.06 2.19 7.51 5.9 8.3 6.62 8.57 6.82 1.0996394.8286018 1.5992698 2.2330747 1.27 3.57z" fill="#7d6599"/><path id="Shape" d="m13 33.9999997v5.0000003h-3.32c-1.03458285.0597583-1.99952901-.5224464-2.4290231-1.4655623-.42949408-.9431158-.23522629-2.0532255.4890231-2.7944377.46311804-.4735517 1.09763346-.7403366 1.76-.74z" fill="#fdd7ad"/><path id="Shape" d="m53 36.68c-.1552361 1.3519928-1.3197137 2.360048-2.68 2.32h-3.32v-5.0000084l3.5.0000084c.6954397-.0018051 1.3602032.2861493 1.8345808.7946821s.7154934 1.1916809.6654192 1.8853179z" fill="#fdd7ad"/><path id="Shape" d="m19 9c0 2.209139-1.790861 4-4 4h-10c-2.209139 0-4-1.790861-4-4s1.790861-4 4-4c0-2.76142375 2.23857625-5 5-5 2.7614237 0 5 2.23857625 5 5 2.209139 0 4 1.790861 4 4z" fill="#bdc3c7"/><path id="Shape" d="m59 13c0 2.209139-1.790861 4-4 4h-10c-2.209139 0-4-1.790861-4-4s1.790861-4 4-4c0-2.76142375 2.2385763-5 5-5s5 2.23857625 5 5c2.209139 0 4 1.790861 4 4z" fill="#bdc3c7"/><path id="Shape" d="m18.7 7.5c-.61012 1.50826659-2.0730078 2.49670429-3.7 2.5h-10c-1.62699221-.00329571-3.08988001-.99173341-3.7-2.5.61011999-1.50826659 2.07300779-2.49670429 3.7-2.5 0-2.76142375 2.23857625-5 5-5 2.7614237 0 5 2.23857625 5 5 1.6269922.00329571 3.08988.99173341 3.7 2.5z" fill="#ecf0f1"/><path id="Shape" d="m58.7 11.5c-.61012 1.5082666-2.0730078 2.4967043-3.7 2.5h-10c-1.6269922-.0032957-3.08988-.9917334-3.7-2.5.61012-1.50826659 2.0730078-2.49670429 3.7-2.5 0-2.76142375 2.2385763-5 5-5s5 2.23857625 5 5c1.6269922.00329571 3.08988.99173341 3.7 2.5z" fill="#ecf0f1"/><path id="Shape" d="m38 55h-10c-.5522847 0-1-.4477153-1-1s.4477153-1 1-1h10c.5522847 0 1 .4477153 1 1s-.4477153 1-1 1z" fill="#5d4c72"/><path id="Shape" d="m33 53v5h-8.5c-1.3807119 0-2.5-1.1192881-2.5-2.5s1.1192881-2.5 2.5-2.5z" fill="#fdd7ad"/><path id="Shape" d="m24 46c-.5522847 0-1-.4477153-1-1v-13c0-.5522847.4477153-1 1-1s1 .4477153 1 1v13c0 .5522847-.4477153 1-1 1z" fill="#5d4c72"/><path id="Shape" d="m36 46c-.5522847 0-1-.4477153-1-1v-13c0-.5522847.4477153-1 1-1s1 .4477153 1 1v13c0 .5522847-.4477153 1-1 1z" fill="#5d4c72"/><g fill="#3d324c"><path id="Shape" d="m3 59h-2c-.55228475 0-1-.4477153-1-1s.44771525-1 1-1h2c.55228475 0 1 .4477153 1 1s-.44771525 1-1 1z"/><path id="Shape" d="m59 59h-52c-.55228475 0-1-.4477153-1-1s.44771525-1 1-1h52c.5522847 0 1 .4477153 1 1s-.4477153 1-1 1z"/></g></g></svg>