<svg height="512" viewBox="0 0 60 60" width="512" xmlns="http://www.w3.org/2000/svg"><g id="022---Yoga" fill="none"><g fill="#f3d55b"><path id="Shape" d="m51 5c-.5522847 0-1-.44771525-1-1v-3c0-.55228475.4477153-1 1-1s1 .44771525 1 1v3c0 .55228475-.4477153 1-1 1z"/><path id="Shape" d="m47.46 6.46c-.55 0-.56-.15-2.82-2.41-.3397768-.39676028-.3169323-.98819417.0524368-1.35756322.369369-.36936905.9608029-.39221358 1.3575632-.05243678l2.12 2.12c.2813286.28700575.363505.71454555.208621 1.08539463-.1548841.37084909-.5167313.61294376-.918621.61460537z"/><path id="Shape" d="m46 10h-3c-.5522847 0-1-.44771525-1-1s.4477153-1 1-1h3c.5522847 0 1 .44771525 1 1s-.4477153 1-1 1z"/><path id="Shape" d="m45.34 15.66c-.4044441-.0016958-.7680455-.2468472-.9212679-.6211476s-.0658935-.8040433.2212679-1.0888524l2.12-2.12c.2443899-.2853762.6281184-.4096819.993419-.3218101.3653005.0878718.6505193.3730906.7383911.7383911.0878718.3653006-.0364339.7490291-.3218101.993419-2.3 2.31-2.28 2.42-2.83 2.42z"/><path id="Shape" d="m51 18c-.5522847 0-1-.4477153-1-1v-3c0-.5522847.4477153-1 1-1s1 .4477153 1 1v3c0 .5522847-.4477153 1-1 1z"/><path id="Shape" d="m56.66 15.66c-.55 0-.57-.16-2.83-2.42-.2853762-.2443899-.4096819-.6281184-.3218101-.993419.0878718-.3653005.3730906-.6505193.7383911-.7383911.3653006-.0878718.7490291.0364339.993419.3218101l2.12 2.17c.2539019.2880363.3204602.6960142.1712683 1.0498119-.1491918.3537978-.4877841.5909291-.8712683.6101881z"/><path id="Shape" d="m59 10h-3c-.5522847 0-1-.44771525-1-1s.4477153-1 1-1h3c.5522847 0 1 .44771525 1 1s-.4477153 1-1 1z"/><path id="Shape" d="m54.54 6.46c-.4018897-.00166161-.7637369-.24375628-.918621-.61460537-.154884-.37084908-.0727076-.79838888.208621-1.08539463l2.17-2.12c.3967603-.3397768.9881942-.31693227 1.3575632.05243678.3693691.36936905.3922136.96080294.0524368 1.35756322-2.35 2.3-2.33 2.41-2.87 2.41z"/></g><circle id="Oval" cx="29" cy="14" fill="#fdd7ad" r="5"/><circle id="Oval" cx="51" cy="9" fill="#f0c419" r="5"/><path id="Shape" d="m51 27.68c-.1552361 1.3519928-1.3197137 2.360048-2.68 2.32h-5.32v-5.0000084l5.5.0000084c.6954397-.0018051 1.3602032.2861493 1.8345808.7946821s.7154934 1.1916809.6654192 1.8853179z" fill="#fdd7ad"/><path id="Shape" d="m16 24.9999997v5.0000003h-5.32c-1.03458285.0597583-1.99952901-.5224464-2.4290231-1.4655623-.42949408-.9431158-.23522629-2.0532255.4890231-2.7944377.46311804-.4735517 1.09763346-.7403366 1.76-.74z" fill="#fdd7ad"/><path id="Shape" d="m45 46v9h-5v-6c0-1.1045695-.8954305-2-2-2h-8.76c-.758944.0004027-1.45227.4303423-1.79 1.11-1.53 4.48-.44 3.08-5.88 7.46l-2.57-.57-1.09-3.09c2.66-2.43 1.7-.85 5.54-10.69.4009237-1.024617.588091-2.120396.55-3.22l5-2 5 2c0 1.6568542 1.3431458 3 3 3h3c2.7614237 0 5 2.2385763 5 5z" fill="#955ba5"/><path id="Shape" d="m45 25v5h-11v8h-10v-8h-10v-5c3.51 0 2.56.15 8-1.55 2.66-.59 4.1-.45 10.33-.45 2.83 0 3.66.39 8.69 1.73 1.3071856.2780283 2.6472414.3689366 3.98.27z" fill="#26b99a"/><path id="Shape" d="m19 10c0 2.209139-1.790861 4-4 4h-10c-2.209139 0-4-1.790861-4-4s1.790861-4 4-4c0-2.76142375 2.23857625-5 5-5 2.7614237 0 5 2.23857625 5 5 2.209139 0 4 1.790861 4 4z" fill="#bdc3c7"/><path id="Shape" d="m18.87 9c-.4557202 1.7649988-2.0471177 2.9986403-3.87 3h-10c-1.82288226-.0013597-3.41427982-1.2350012-3.87-3 .45572018-1.76499878 2.04711774-2.9986403 3.87-3 0-2.76142375 2.23857625-5 5-5 2.7614237 0 5 2.23857625 5 5 1.8228823.0013597 3.4142798 1.23500122 3.87 3z" fill="#ecf0f1"/><path id="Shape" d="m21.57 55.57-3.66 2.94c-.6734456.5537617-1.5911634.7061796-2.4074579.3998394s-1.4071511-1.0248982-1.55-1.885c-.1428488-.8601019.1840123-1.7310777.8574579-2.2848394l3.1-2.83z" fill="#fdd7ad"/><path id="Shape" d="m45 53v3.34c.0108425.7070047-.2645424 1.3883756-.7635866 1.8893029-.4990441.5009273-1.1793729.7788767-1.8864134.7706971-1.3218097-.0794496-2.3523856-1.1758069-2.35-2.5l-.0000041-3.5z" fill="#fdd7ad"/><path id="Shape" d="m3 60h-2c-.55228475 0-1-.4477153-1-1s.44771525-1 1-1h2c.55228475 0 1 .4477153 1 1s-.44771525 1-1 1z" fill="#4fba6f"/><path id="Shape" d="m59 60h-52c-.55228475 0-1-.4477153-1-1s.44771525-1 1-1h52c.5522847 0 1 .4477153 1 1s-.4477153 1-1 1z" fill="#4fba6f"/></g></svg>